<svg xmlns="http://www.w3.org/2000/svg" xmlns:xlink="http://www.w3.org/1999/xlink" width="500" zoomAndPan="magnify" viewBox="0 0 375 374.999991" height="500" preserveAspectRatio="xMidYMid meet" version="1.0"><defs><g/><clipPath id="10aaea4cb5"><path d="M 100.101562 189 L 145.292969 189 L 145.292969 205.714844 L 100.101562 205.714844 Z M 100.101562 189 " clip-rule="nonzero"/></clipPath><clipPath id="96e23f14a6"><path d="M 99.648438 148.390625 L 144.84375 148.390625 L 144.84375 169 L 99.648438 169 Z M 99.648438 148.390625 " clip-rule="nonzero"/></clipPath><clipPath id="7130e3b310"><path d="M 96.742188 182.738281 L 104.152344 182.738281 L 104.152344 189.777344 L 96.742188 189.777344 Z M 96.742188 182.738281 " clip-rule="nonzero"/></clipPath><clipPath id="af11e91b77"><path d="M 140.632812 182.738281 L 148.039062 182.738281 L 148.039062 189.777344 L 140.632812 189.777344 Z M 140.632812 182.738281 " clip-rule="nonzero"/></clipPath></defs><g fill="#183e9f" fill-opacity="1"><g transform="translate(149.519844, 183.06197)"><g><path d="M 13.578125 -0.015625 L 11.25 -0.015625 L 11.25 -8.59375 C 11.25 -8.75 11.28125 -9.160156 11.34375 -9.828125 C 11.300781 -9.734375 11.253906 -9.601562 11.203125 -9.4375 C 11.148438 -9.269531 11.097656 -9.117188 11.046875 -8.984375 C 11.003906 -8.847656 10.960938 -8.71875 10.921875 -8.59375 L 7.828125 0 L 6.546875 0 L 3.375 -8.59375 C 3.320312 -8.71875 3.269531 -8.847656 3.21875 -8.984375 C 3.175781 -9.117188 3.128906 -9.269531 3.078125 -9.4375 C 3.023438 -9.601562 2.984375 -9.734375 2.953125 -9.828125 C 2.953125 -9.722656 2.96875 -9.523438 3 -9.234375 C 3.03125 -8.953125 3.046875 -8.738281 3.046875 -8.59375 L 3.046875 -0.015625 L 1.15625 -0.015625 L 1.15625 -11.59375 C 1.15625 -11.601562 1.132812 -11.6875 1.09375 -11.84375 C 1.050781 -12.007812 1.007812 -12.175781 0.96875 -12.34375 C 0.9375 -12.519531 0.921875 -12.625 0.921875 -12.65625 L 4.234375 -12.65625 L 6.9375 -5.390625 C 7.0625 -5.046875 7.226562 -4.347656 7.4375 -3.296875 C 7.457031 -3.378906 7.515625 -3.671875 7.609375 -4.171875 C 7.710938 -4.671875 7.804688 -5.054688 7.890625 -5.328125 L 10.546875 -12.65625 L 13.578125 -12.65625 Z M 13.578125 -0.015625 "/></g></g></g><g fill="#183e9f" fill-opacity="1"><g transform="translate(164.003282, 183.06197)"><g><path d="M 8.046875 -5.078125 C 8.046875 -4.390625 7.753906 -4.046875 7.171875 -4.046875 L 2.640625 -4.046875 C 2.640625 -3.304688 2.832031 -2.644531 3.21875 -2.0625 C 3.613281 -1.476562 4.164062 -1.1875 4.875 -1.1875 C 5.226562 -1.1875 5.597656 -1.269531 5.984375 -1.4375 C 6.367188 -1.613281 6.695312 -1.835938 6.96875 -2.109375 L 7.84375 -0.71875 C 7.488281 -0.425781 7.019531 -0.203125 6.4375 -0.046875 C 5.851562 0.109375 5.296875 0.1875 4.765625 0.1875 C 3.429688 0.1875 2.378906 -0.210938 1.609375 -1.015625 C 0.835938 -1.816406 0.453125 -2.890625 0.453125 -4.234375 C 0.453125 -5.515625 0.8125 -6.597656 1.53125 -7.484375 C 2.25 -8.378906 3.226562 -8.828125 4.46875 -8.828125 C 5.601562 -8.828125 6.484375 -8.488281 7.109375 -7.8125 C 7.734375 -7.132812 8.046875 -6.222656 8.046875 -5.078125 Z M 5.890625 -5.796875 C 5.890625 -6.265625 5.769531 -6.648438 5.53125 -6.953125 C 5.289062 -7.253906 4.945312 -7.40625 4.5 -7.40625 C 4.03125 -7.40625 3.617188 -7.191406 3.265625 -6.765625 C 2.910156 -6.347656 2.722656 -5.894531 2.703125 -5.40625 L 5.59375 -5.40625 C 5.789062 -5.40625 5.890625 -5.535156 5.890625 -5.796875 Z M 5.890625 -5.796875 "/></g></g></g><g fill="#183e9f" fill-opacity="1"><g transform="translate(172.54125, 183.06197)"><g><path d="M 8.90625 -0.046875 L 6.8125 0.15625 C 6.71875 -0.09375 6.628906 -0.4375 6.546875 -0.875 C 6.316406 -0.539062 5.972656 -0.273438 5.515625 -0.078125 C 5.066406 0.109375 4.617188 0.203125 4.171875 0.203125 C 3.003906 0.203125 2.097656 -0.234375 1.453125 -1.109375 C 0.804688 -1.992188 0.484375 -3.035156 0.484375 -4.234375 C 0.484375 -5.546875 0.832031 -6.632812 1.53125 -7.5 C 2.226562 -8.363281 3.21875 -8.796875 4.5 -8.796875 C 5.320312 -8.796875 5.957031 -8.613281 6.40625 -8.25 C 6.394531 -8.550781 6.390625 -8.898438 6.390625 -9.296875 L 6.390625 -12.34375 L 6.140625 -13.265625 L 8.46875 -13.265625 L 8.46875 -2.453125 C 8.46875 -1.378906 8.613281 -0.578125 8.90625 -0.046875 Z M 6.390625 -2.234375 L 6.390625 -5.046875 C 6.390625 -5.703125 6.253906 -6.242188 5.984375 -6.671875 C 5.722656 -7.109375 5.289062 -7.328125 4.6875 -7.328125 C 4.207031 -7.328125 3.816406 -7.148438 3.515625 -6.796875 C 3.210938 -6.441406 3.007812 -6.054688 2.90625 -5.640625 C 2.800781 -5.222656 2.75 -4.785156 2.75 -4.328125 C 2.75 -3.566406 2.910156 -2.875 3.234375 -2.25 C 3.554688 -1.632812 4.0625 -1.328125 4.75 -1.328125 C 5.0625 -1.328125 5.367188 -1.410156 5.671875 -1.578125 C 5.984375 -1.742188 6.222656 -1.960938 6.390625 -2.234375 Z M 6.390625 -2.234375 "/></g></g></g><g fill="#183e9f" fill-opacity="1"><g transform="translate(182.185352, 183.06197)"><g><path d="M 3.203125 0 L 1.125 0 L 1.125 -7.65625 C 1.125 -7.664062 1.109375 -7.738281 1.078125 -7.875 C 1.046875 -8.019531 1.015625 -8.171875 0.984375 -8.328125 C 0.953125 -8.492188 0.9375 -8.582031 0.9375 -8.59375 L 3.203125 -8.59375 Z M 3.09375 -12.671875 C 3.351562 -12.398438 3.484375 -12.078125 3.484375 -11.703125 C 3.484375 -11.335938 3.351562 -11.023438 3.09375 -10.765625 C 2.84375 -10.515625 2.53125 -10.390625 2.15625 -10.390625 C 1.789062 -10.390625 1.476562 -10.515625 1.21875 -10.765625 C 0.957031 -11.023438 0.828125 -11.335938 0.828125 -11.703125 C 0.828125 -12.078125 0.957031 -12.394531 1.21875 -12.65625 C 1.476562 -12.925781 1.789062 -13.0625 2.15625 -13.0625 C 2.53125 -13.0625 2.84375 -12.929688 3.09375 -12.671875 Z M 3.09375 -12.671875 "/></g></g></g><g fill="#183e9f" fill-opacity="1"><g transform="translate(186.523471, 183.06197)"><g><path d="M 7.640625 -0.609375 C 7.066406 -0.316406 6.566406 -0.109375 6.140625 0.015625 C 5.710938 0.140625 5.21875 0.203125 4.65625 0.203125 C 3.3125 0.203125 2.273438 -0.207031 1.546875 -1.03125 C 0.816406 -1.851562 0.453125 -2.941406 0.453125 -4.296875 C 0.453125 -5.648438 0.859375 -6.738281 1.671875 -7.5625 C 2.484375 -8.394531 3.554688 -8.8125 4.890625 -8.8125 C 5.316406 -8.8125 5.769531 -8.734375 6.25 -8.578125 C 6.738281 -8.429688 7.15625 -8.234375 7.5 -7.984375 L 6.46875 -6.671875 C 5.863281 -7.117188 5.273438 -7.34375 4.703125 -7.34375 C 4.035156 -7.34375 3.539062 -7.023438 3.21875 -6.390625 C 2.894531 -5.753906 2.734375 -5.070312 2.734375 -4.34375 C 2.734375 -3.820312 2.796875 -3.335938 2.921875 -2.890625 C 3.054688 -2.453125 3.296875 -2.066406 3.640625 -1.734375 C 3.992188 -1.410156 4.429688 -1.25 4.953125 -1.25 C 5.484375 -1.25 6.082031 -1.53125 6.75 -2.09375 Z M 7.640625 -0.609375 "/></g></g></g><g fill="#183e9f" fill-opacity="1"><g transform="translate(194.300972, 183.06197)"><g><path d="M 8.921875 -0.328125 C 8.816406 -0.304688 8.65625 -0.257812 8.4375 -0.1875 C 8.226562 -0.125 8.050781 -0.0703125 7.90625 -0.03125 C 7.769531 0.0078125 7.609375 0.046875 7.421875 0.078125 C 7.234375 0.117188 7.0625 0.140625 6.90625 0.140625 C 6.5625 0.140625 6.269531 0.0351562 6.03125 -0.171875 C 5.789062 -0.390625 5.628906 -0.671875 5.546875 -1.015625 C 4.972656 -0.210938 4.109375 0.1875 2.953125 0.1875 C 2.253906 0.1875 1.671875 -0.00390625 1.203125 -0.390625 C 0.742188 -0.785156 0.515625 -1.328125 0.515625 -2.015625 C 0.515625 -2.617188 0.65625 -3.128906 0.9375 -3.546875 C 1.226562 -3.960938 1.625 -4.269531 2.125 -4.46875 C 2.625 -4.664062 3.117188 -4.804688 3.609375 -4.890625 C 4.109375 -4.984375 4.640625 -5.03125 5.203125 -5.03125 L 5.203125 -6.15625 C 5.203125 -6.601562 5.101562 -6.914062 4.90625 -7.09375 C 4.707031 -7.269531 4.390625 -7.359375 3.953125 -7.359375 C 3.347656 -7.359375 2.613281 -7.023438 1.75 -6.359375 L 0.90625 -7.71875 C 1.945312 -8.4375 3.109375 -8.796875 4.390625 -8.796875 C 5.304688 -8.796875 6.015625 -8.554688 6.515625 -8.078125 C 7.023438 -7.609375 7.28125 -6.914062 7.28125 -6 L 7.28125 -2.25 C 7.28125 -1.664062 7.414062 -1.375 7.6875 -1.375 C 7.78125 -1.375 8.066406 -1.445312 8.546875 -1.59375 Z M 5.203125 -3.21875 L 5.203125 -3.609375 C 3.515625 -3.609375 2.671875 -3.148438 2.671875 -2.234375 C 2.671875 -1.972656 2.769531 -1.769531 2.96875 -1.625 C 3.175781 -1.476562 3.414062 -1.40625 3.6875 -1.40625 C 4.132812 -1.40625 4.5 -1.585938 4.78125 -1.953125 C 5.0625 -2.328125 5.203125 -2.75 5.203125 -3.21875 Z M 5.203125 -3.21875 "/></g></g></g><g fill="#183e9f" fill-opacity="1"><g transform="translate(202.83894, 183.06197)"><g><path d="M 3.203125 0 L 1.09375 0 L 1.09375 -12.359375 C 1.09375 -12.367188 1.078125 -12.441406 1.046875 -12.578125 C 1.015625 -12.710938 0.984375 -12.859375 0.953125 -13.015625 C 0.921875 -13.179688 0.90625 -13.273438 0.90625 -13.296875 L 3.203125 -13.296875 Z M 3.203125 0 "/></g></g></g><g fill="#183e9f" fill-opacity="1"><g transform="translate(207.177059, 183.06197)"><g/></g></g><g fill="#183e9f" fill-opacity="1"><g transform="translate(211.152228, 183.06197)"><g><path d="M 6.796875 -2.671875 C 6.796875 -1.785156 6.457031 -1.078125 5.78125 -0.546875 C 5.113281 -0.0234375 4.328125 0.234375 3.421875 0.234375 C 2.410156 0.234375 1.453125 -0.0078125 0.546875 -0.5 L 1.296875 -1.921875 C 2.078125 -1.460938 2.726562 -1.234375 3.25 -1.234375 C 3.613281 -1.234375 3.921875 -1.328125 4.171875 -1.515625 C 4.421875 -1.703125 4.546875 -1.972656 4.546875 -2.328125 C 4.546875 -2.640625 4.414062 -2.898438 4.15625 -3.109375 C 3.894531 -3.316406 3.578125 -3.484375 3.203125 -3.609375 C 2.835938 -3.734375 2.46875 -3.878906 2.09375 -4.046875 C 1.71875 -4.210938 1.398438 -4.46875 1.140625 -4.8125 C 0.890625 -5.164062 0.765625 -5.601562 0.765625 -6.125 C 0.765625 -6.976562 1.09375 -7.640625 1.75 -8.109375 C 2.414062 -8.578125 3.191406 -8.8125 4.078125 -8.8125 C 5.054688 -8.8125 5.90625 -8.632812 6.625 -8.28125 L 5.890625 -6.828125 C 5.378906 -7.210938 4.8125 -7.40625 4.1875 -7.40625 C 3.863281 -7.40625 3.582031 -7.328125 3.34375 -7.171875 C 3.113281 -7.023438 3 -6.800781 3 -6.5 C 3 -6.207031 3.128906 -5.96875 3.390625 -5.78125 C 3.648438 -5.601562 3.96875 -5.445312 4.34375 -5.3125 C 4.71875 -5.175781 5.085938 -5.019531 5.453125 -4.84375 C 5.828125 -4.675781 6.144531 -4.410156 6.40625 -4.046875 C 6.664062 -3.691406 6.796875 -3.234375 6.796875 -2.671875 Z M 6.796875 -2.671875 "/></g></g></g><g fill="#183e9f" fill-opacity="1"><g transform="translate(218.584062, 183.06197)"><g><path d="M 0.453125 -4.296875 C 0.453125 -5.566406 0.832031 -6.632812 1.59375 -7.5 C 2.363281 -8.375 3.375 -8.8125 4.625 -8.8125 C 5.894531 -8.8125 6.910156 -8.378906 7.671875 -7.515625 C 8.429688 -6.648438 8.8125 -5.578125 8.8125 -4.296875 C 8.8125 -3.023438 8.429688 -1.957031 7.671875 -1.09375 C 6.910156 -0.226562 5.894531 0.203125 4.625 0.203125 C 3.363281 0.203125 2.351562 -0.226562 1.59375 -1.09375 C 0.832031 -1.957031 0.453125 -3.023438 0.453125 -4.296875 Z M 4.625 -7.390625 C 4.144531 -7.390625 3.75 -7.207031 3.4375 -6.84375 C 3.132812 -6.476562 2.941406 -6.082031 2.859375 -5.65625 C 2.773438 -5.226562 2.734375 -4.769531 2.734375 -4.28125 C 2.734375 -3.800781 2.773438 -3.347656 2.859375 -2.921875 C 2.941406 -2.492188 3.132812 -2.09375 3.4375 -1.71875 C 3.75 -1.351562 4.144531 -1.171875 4.625 -1.171875 C 5.007812 -1.171875 5.335938 -1.269531 5.609375 -1.46875 C 5.878906 -1.664062 6.070312 -1.929688 6.1875 -2.265625 C 6.3125 -2.597656 6.398438 -2.925781 6.453125 -3.25 C 6.503906 -3.570312 6.53125 -3.914062 6.53125 -4.28125 C 6.53125 -4.65625 6.503906 -5.003906 6.453125 -5.328125 C 6.398438 -5.648438 6.3125 -5.976562 6.1875 -6.3125 C 6.070312 -6.644531 5.878906 -6.90625 5.609375 -7.09375 C 5.335938 -7.289062 5.007812 -7.390625 4.625 -7.390625 Z M 4.625 -7.390625 "/></g></g></g><g fill="#183e9f" fill-opacity="1"><g transform="translate(227.847933, 183.06197)"><g><path d="M 7.640625 -0.609375 C 7.066406 -0.316406 6.566406 -0.109375 6.140625 0.015625 C 5.710938 0.140625 5.21875 0.203125 4.65625 0.203125 C 3.3125 0.203125 2.273438 -0.207031 1.546875 -1.03125 C 0.816406 -1.851562 0.453125 -2.941406 0.453125 -4.296875 C 0.453125 -5.648438 0.859375 -6.738281 1.671875 -7.5625 C 2.484375 -8.394531 3.554688 -8.8125 4.890625 -8.8125 C 5.316406 -8.8125 5.769531 -8.734375 6.25 -8.578125 C 6.738281 -8.429688 7.15625 -8.234375 7.5 -7.984375 L 6.46875 -6.671875 C 5.863281 -7.117188 5.273438 -7.34375 4.703125 -7.34375 C 4.035156 -7.34375 3.539062 -7.023438 3.21875 -6.390625 C 2.894531 -5.753906 2.734375 -5.070312 2.734375 -4.34375 C 2.734375 -3.820312 2.796875 -3.335938 2.921875 -2.890625 C 3.054688 -2.453125 3.296875 -2.066406 3.640625 -1.734375 C 3.992188 -1.410156 4.429688 -1.25 4.953125 -1.25 C 5.484375 -1.25 6.082031 -1.53125 6.75 -2.09375 Z M 7.640625 -0.609375 "/></g></g></g><g fill="#183e9f" fill-opacity="1"><g transform="translate(235.625434, 183.06197)"><g><path d="M 3.203125 0 L 1.125 0 L 1.125 -7.65625 C 1.125 -7.664062 1.109375 -7.738281 1.078125 -7.875 C 1.046875 -8.019531 1.015625 -8.171875 0.984375 -8.328125 C 0.953125 -8.492188 0.9375 -8.582031 0.9375 -8.59375 L 3.203125 -8.59375 Z M 3.09375 -12.671875 C 3.351562 -12.398438 3.484375 -12.078125 3.484375 -11.703125 C 3.484375 -11.335938 3.351562 -11.023438 3.09375 -10.765625 C 2.84375 -10.515625 2.53125 -10.390625 2.15625 -10.390625 C 1.789062 -10.390625 1.476562 -10.515625 1.21875 -10.765625 C 0.957031 -11.023438 0.828125 -11.335938 0.828125 -11.703125 C 0.828125 -12.078125 0.957031 -12.394531 1.21875 -12.65625 C 1.476562 -12.925781 1.789062 -13.0625 2.15625 -13.0625 C 2.53125 -13.0625 2.84375 -12.929688 3.09375 -12.671875 Z M 3.09375 -12.671875 "/></g></g></g><g fill="#183e9f" fill-opacity="1"><g transform="translate(239.963553, 183.06197)"><g><path d="M 8.046875 -5.078125 C 8.046875 -4.390625 7.753906 -4.046875 7.171875 -4.046875 L 2.640625 -4.046875 C 2.640625 -3.304688 2.832031 -2.644531 3.21875 -2.0625 C 3.613281 -1.476562 4.164062 -1.1875 4.875 -1.1875 C 5.226562 -1.1875 5.597656 -1.269531 5.984375 -1.4375 C 6.367188 -1.613281 6.695312 -1.835938 6.96875 -2.109375 L 7.84375 -0.71875 C 7.488281 -0.425781 7.019531 -0.203125 6.4375 -0.046875 C 5.851562 0.109375 5.296875 0.1875 4.765625 0.1875 C 3.429688 0.1875 2.378906 -0.210938 1.609375 -1.015625 C 0.835938 -1.816406 0.453125 -2.890625 0.453125 -4.234375 C 0.453125 -5.515625 0.8125 -6.597656 1.53125 -7.484375 C 2.25 -8.378906 3.226562 -8.828125 4.46875 -8.828125 C 5.601562 -8.828125 6.484375 -8.488281 7.109375 -7.8125 C 7.734375 -7.132812 8.046875 -6.222656 8.046875 -5.078125 Z M 5.890625 -5.796875 C 5.890625 -6.265625 5.769531 -6.648438 5.53125 -6.953125 C 5.289062 -7.253906 4.945312 -7.40625 4.5 -7.40625 C 4.03125 -7.40625 3.617188 -7.191406 3.265625 -6.765625 C 2.910156 -6.347656 2.722656 -5.894531 2.703125 -5.40625 L 5.59375 -5.40625 C 5.789062 -5.40625 5.890625 -5.535156 5.890625 -5.796875 Z M 5.890625 -5.796875 "/></g></g></g><g fill="#183e9f" fill-opacity="1"><g transform="translate(248.501516, 183.06197)"><g><path d="M 5.65625 -0.1875 C 4.882812 0.0507812 4.203125 0.171875 3.609375 0.171875 C 2.859375 0.171875 2.3125 0 1.96875 -0.34375 C 1.625 -0.6875 1.453125 -1.238281 1.453125 -2 L 1.453125 -7.21875 L 0.03125 -7.21875 L 0.03125 -8.359375 C 0.46875 -8.367188 0.859375 -8.523438 1.203125 -8.828125 C 1.554688 -9.128906 1.816406 -9.46875 1.984375 -9.84375 C 2.160156 -10.226562 2.300781 -10.644531 2.40625 -11.09375 L 3.90625 -11.09375 C 3.675781 -10.113281 3.5625 -9.28125 3.5625 -8.59375 L 5.65625 -8.59375 L 5.234375 -7.21875 L 3.5625 -7.21875 L 3.5625 -2.46875 C 3.5625 -1.695312 3.800781 -1.3125 4.28125 -1.3125 C 4.550781 -1.3125 4.925781 -1.367188 5.40625 -1.484375 Z M 5.65625 -0.1875 "/></g></g></g><g fill="#183e9f" fill-opacity="1"><g transform="translate(254.15317, 183.06197)"><g><path d="M 7.921875 -8.59375 L 4.859375 0.046875 C 3.984375 2.554688 2.734375 3.8125 1.109375 3.8125 L 0.46875 3.8125 L 0.46875 2.34375 C 0.601562 2.382812 0.753906 2.40625 0.921875 2.40625 C 1.222656 2.40625 1.5 2.332031 1.75 2.1875 C 2 2.039062 2.207031 1.828125 2.375 1.546875 C 2.539062 1.273438 2.671875 1.023438 2.765625 0.796875 C 2.867188 0.578125 2.972656 0.304688 3.078125 -0.015625 L -0.03125 -8.59375 L 2.1875 -8.59375 C 2.269531 -8.34375 2.519531 -7.640625 2.9375 -6.484375 C 3.351562 -5.328125 3.664062 -4.4375 3.875 -3.8125 C 3.914062 -3.664062 3.960938 -3.429688 4.015625 -3.109375 C 4.066406 -2.796875 4.097656 -2.597656 4.109375 -2.515625 C 4.234375 -3.253906 4.316406 -3.6875 4.359375 -3.8125 L 6.015625 -8.59375 Z M 7.921875 -8.59375 "/></g></g></g><g fill="#183e9f" fill-opacity="1"><g transform="translate(182.35115, 193.928207)"><g><path d="M 4.640625 0 L 3.953125 0 L 3.953125 -2.546875 L 1.328125 -2.546875 L 1.328125 0 L 0.640625 0 L 0.640625 -4.90625 C 0.640625 -4.90625 0.628906 -4.941406 0.609375 -5.015625 C 0.597656 -5.085938 0.582031 -5.164062 0.5625 -5.25 C 0.550781 -5.332031 0.546875 -5.378906 0.546875 -5.390625 L 1.328125 -5.390625 L 1.328125 -3.046875 L 3.953125 -3.046875 L 3.953125 -5.390625 L 4.640625 -5.390625 Z M 4.640625 0 "/></g></g></g><g fill="#183e9f" fill-opacity="1"><g transform="translate(187.64104, 193.928207)"><g><path d="M 3.765625 0 L 0.640625 0 L 0.640625 -4.90625 C 0.640625 -4.90625 0.628906 -4.941406 0.609375 -5.015625 C 0.585938 -5.085938 0.566406 -5.164062 0.546875 -5.25 C 0.535156 -5.332031 0.53125 -5.378906 0.53125 -5.390625 L 3.765625 -5.390625 L 3.765625 -4.875 L 1.328125 -4.875 L 1.328125 -3.015625 L 3.21875 -3.015625 L 3.21875 -2.515625 L 1.328125 -2.515625 L 1.328125 -0.515625 L 3.765625 -0.515625 Z M 3.765625 0 "/></g></g></g><g fill="#183e9f" fill-opacity="1"><g transform="translate(191.708479, 193.928207)"><g><path d="M 4.546875 0 L 3.78125 0 L 3.15625 -1.84375 L 1.390625 -1.84375 L 0.75 0 L 0.140625 0 L 2 -5.390625 L 2.6875 -5.390625 Z M 2.984375 -2.359375 L 2.28125 -4.484375 L 1.5625 -2.359375 Z M 2.984375 -2.359375 "/></g></g></g><g fill="#183e9f" fill-opacity="1"><g transform="translate(196.383441, 193.928207)"><g><path d="M 3.59375 0 L 0.640625 0 L 0.640625 -4.90625 C 0.640625 -4.90625 0.628906 -4.941406 0.609375 -5.015625 C 0.585938 -5.085938 0.566406 -5.164062 0.546875 -5.25 C 0.535156 -5.332031 0.53125 -5.378906 0.53125 -5.390625 L 1.328125 -5.390625 L 1.328125 -0.515625 L 3.59375 -0.515625 Z M 3.59375 0 "/></g></g></g><g fill="#183e9f" fill-opacity="1"><g transform="translate(200.191567, 193.928207)"><g><path d="M 2.484375 0 L 1.78125 0 L 1.78125 -4.875 L 0.171875 -4.875 L 0.171875 -5.390625 L 4.109375 -5.390625 L 4.109375 -4.875 L 2.484375 -4.875 Z M 2.484375 0 "/></g></g></g><g fill="#183e9f" fill-opacity="1"><g transform="translate(204.473857, 193.928207)"><g><path d="M 4.640625 0 L 3.953125 0 L 3.953125 -2.546875 L 1.328125 -2.546875 L 1.328125 0 L 0.640625 0 L 0.640625 -4.90625 C 0.640625 -4.90625 0.628906 -4.941406 0.609375 -5.015625 C 0.597656 -5.085938 0.582031 -5.164062 0.5625 -5.25 C 0.550781 -5.332031 0.546875 -5.378906 0.546875 -5.390625 L 1.328125 -5.390625 L 1.328125 -3.046875 L 3.953125 -3.046875 L 3.953125 -5.390625 L 4.640625 -5.390625 Z M 4.640625 0 "/></g></g></g><g fill="#183e9f" fill-opacity="1"><g transform="translate(209.763747, 193.928207)"><g/></g></g><g fill="#183e9f" fill-opacity="1"><g transform="translate(211.467772, 193.928207)"><g><path d="M 4.171875 -0.921875 L 4.5 -0.421875 C 4.300781 -0.265625 4.046875 -0.140625 3.734375 -0.046875 C 3.429688 0.046875 3.132812 0.09375 2.84375 0.09375 C 2.070312 0.09375 1.460938 -0.175781 1.015625 -0.71875 C 0.566406 -1.257812 0.34375 -1.921875 0.34375 -2.703125 C 0.34375 -3.503906 0.566406 -4.164062 1.015625 -4.6875 C 1.460938 -5.207031 2.078125 -5.46875 2.859375 -5.46875 C 3.148438 -5.46875 3.453125 -5.414062 3.765625 -5.3125 C 4.078125 -5.207031 4.316406 -5.0625 4.484375 -4.875 L 4.09375 -4.453125 C 3.957031 -4.609375 3.769531 -4.726562 3.53125 -4.8125 C 3.289062 -4.90625 3.0625 -4.953125 2.84375 -4.953125 C 2.539062 -4.953125 2.273438 -4.882812 2.046875 -4.75 C 1.816406 -4.625 1.632812 -4.445312 1.5 -4.21875 C 1.363281 -3.988281 1.257812 -3.742188 1.1875 -3.484375 C 1.125 -3.234375 1.09375 -2.960938 1.09375 -2.671875 C 1.09375 -2.367188 1.125 -2.085938 1.1875 -1.828125 C 1.257812 -1.578125 1.363281 -1.347656 1.5 -1.140625 C 1.632812 -0.929688 1.816406 -0.765625 2.046875 -0.640625 C 2.285156 -0.523438 2.554688 -0.46875 2.859375 -0.46875 C 3.085938 -0.46875 3.320312 -0.507812 3.5625 -0.59375 C 3.8125 -0.675781 4.015625 -0.785156 4.171875 -0.921875 Z M 4.171875 -0.921875 "/></g></g></g><g fill="#183e9f" fill-opacity="1"><g transform="translate(216.090872, 193.928207)"><g><path d="M 4.546875 0 L 3.78125 0 L 3.15625 -1.84375 L 1.390625 -1.84375 L 0.75 0 L 0.140625 0 L 2 -5.390625 L 2.6875 -5.390625 Z M 2.984375 -2.359375 L 2.28125 -4.484375 L 1.5625 -2.359375 Z M 2.984375 -2.359375 "/></g></g></g><g fill="#183e9f" fill-opacity="1"><g transform="translate(220.765834, 193.928207)"><g><path d="M 4.4375 0 L 3.640625 0 L 2.25 -2.4375 C 2.132812 -2.425781 1.945312 -2.421875 1.6875 -2.421875 L 1.3125 -2.421875 L 1.3125 0 L 0.625 0 L 0.625 -4.90625 C 0.625 -4.90625 0.613281 -4.941406 0.59375 -5.015625 C 0.582031 -5.085938 0.566406 -5.164062 0.546875 -5.25 C 0.535156 -5.332031 0.53125 -5.378906 0.53125 -5.390625 L 2.140625 -5.390625 C 3.347656 -5.390625 3.953125 -4.894531 3.953125 -3.90625 C 3.953125 -3.601562 3.851562 -3.328125 3.65625 -3.078125 C 3.457031 -2.828125 3.210938 -2.65625 2.921875 -2.5625 Z M 1.3125 -2.921875 L 1.90625 -2.921875 C 2.320312 -2.921875 2.644531 -2.992188 2.875 -3.140625 C 3.113281 -3.296875 3.234375 -3.566406 3.234375 -3.953125 C 3.234375 -4.253906 3.125 -4.484375 2.90625 -4.640625 C 2.695312 -4.796875 2.441406 -4.875 2.140625 -4.875 L 1.3125 -4.875 Z M 1.3125 -2.921875 "/></g></g></g><g fill="#183e9f" fill-opacity="1"><g transform="translate(225.144442, 193.928207)"><g><path d="M 3.765625 0 L 0.640625 0 L 0.640625 -4.90625 C 0.640625 -4.90625 0.628906 -4.941406 0.609375 -5.015625 C 0.585938 -5.085938 0.566406 -5.164062 0.546875 -5.25 C 0.535156 -5.332031 0.53125 -5.378906 0.53125 -5.390625 L 3.765625 -5.390625 L 3.765625 -4.875 L 1.328125 -4.875 L 1.328125 -3.015625 L 3.21875 -3.015625 L 3.21875 -2.515625 L 1.328125 -2.515625 L 1.328125 -0.515625 L 3.765625 -0.515625 Z M 3.765625 0 "/></g></g></g><path fill="#3f4446" d="M 116.496094 199.351562 C 113.609375 187.679688 125.871094 175.816406 135.171875 170.40625 C 125.242188 174.453125 102.125 187.164062 116.496094 199.351562 Z M 116.496094 199.351562 " fill-opacity="1" fill-rule="evenodd"/><path fill="#3f4446" d="M 111.535156 188.28125 C 109.675781 184.164062 106.234375 180.863281 101.617188 178.160156 C 106.074219 180.035156 109.996094 182.261719 113.03125 185.082031 C 112.378906 186.125 111.867188 187.191406 111.535156 188.28125 Z M 111.535156 188.28125 " fill-opacity="1" fill-rule="evenodd"/><path fill="#3f4446" d="M 115.972656 178.90625 C 116.027344 179.246094 116.015625 179.582031 115.933594 179.917969 C 115.855469 180.25 115.714844 180.558594 115.515625 180.835938 C 115.3125 181.113281 115.066406 181.34375 114.773438 181.523438 C 114.480469 181.703125 114.164062 181.820312 113.820312 181.878906 C 113.480469 181.933594 113.144531 181.921875 112.808594 181.839844 C 112.472656 181.761719 112.167969 181.621094 111.886719 181.421875 C 111.605469 181.222656 111.378906 180.972656 111.195312 180.683594 C 111.015625 180.390625 110.898438 180.074219 110.839844 179.734375 C 110.785156 179.398438 110.796875 179.058594 110.878906 178.726562 C 110.957031 178.390625 111.097656 178.085938 111.296875 177.808594 C 111.5 177.527344 111.746094 177.296875 112.039062 177.117188 C 112.332031 176.9375 112.648438 176.820312 112.988281 176.765625 C 113.332031 176.710938 113.667969 176.722656 114.003906 176.800781 C 114.339844 176.878906 114.644531 177.019531 114.925781 177.21875 C 115.207031 177.421875 115.433594 177.667969 115.617188 177.960938 C 115.796875 178.25 115.914062 178.566406 115.972656 178.90625 Z M 115.972656 178.90625 " fill-opacity="1" fill-rule="nonzero"/><path fill="#67bc45" d="M 127.996094 199.351562 C 129.554688 193.035156 126.683594 186.667969 122.242188 181.292969 C 122.925781 180.464844 123.644531 179.664062 124.390625 178.886719 C 131.773438 184.589844 136.589844 192.0625 127.996094 199.351562 Z M 120.097656 178.890625 C 120.796875 178.351562 121.511719 177.832031 122.242188 177.328125 C 117.753906 174.238281 112.75 171.804688 109.316406 170.40625 C 112.8125 172.441406 116.730469 175.386719 120.097656 178.890625 Z M 120.097656 178.890625 " fill-opacity="1" fill-rule="evenodd"/><path fill="#67bc45" d="M 132.957031 188.28125 C 134.816406 184.167969 138.257812 180.863281 142.875 178.164062 C 138.417969 180.039062 134.492188 182.265625 131.457031 185.085938 C 132.109375 186.125 132.625 187.191406 132.957031 188.28125 Z M 132.957031 188.28125 " fill-opacity="1" fill-rule="evenodd"/><path fill="#67bc45" d="M 131.683594 176.804688 C 132.019531 176.882812 132.328125 177.023438 132.605469 177.222656 C 132.886719 177.421875 133.117188 177.671875 133.296875 177.960938 C 133.476562 178.253906 133.597656 178.570312 133.652344 178.910156 C 133.707031 179.246094 133.695312 179.585938 133.613281 179.917969 C 133.535156 180.253906 133.394531 180.558594 133.195312 180.835938 C 132.992188 181.117188 132.746094 181.347656 132.453125 181.527344 C 132.160156 181.707031 131.84375 181.824219 131.503906 181.878906 C 131.164062 181.933594 130.824219 181.921875 130.488281 181.84375 C 130.152344 181.765625 129.847656 181.625 129.566406 181.425781 C 129.289062 181.222656 129.058594 180.976562 128.875 180.683594 C 128.695312 180.394531 128.578125 180.078125 128.523438 179.738281 C 128.464844 179.398438 128.476562 179.0625 128.558594 178.726562 C 128.636719 178.394531 128.777344 178.085938 128.980469 177.808594 C 129.179688 177.53125 129.425781 177.300781 129.71875 177.121094 C 130.015625 176.941406 130.332031 176.824219 130.671875 176.765625 C 131.011719 176.710938 131.347656 176.722656 131.683594 176.804688 Z M 131.683594 176.804688 " fill-opacity="1" fill-rule="nonzero"/><g clip-path="url(#10aaea4cb5)"><path fill="#3f4446" d="M 122.695312 205.679688 C 135.171875 205.679688 145.289062 201.542969 145.289062 196.441406 C 145.289062 193.433594 141.78125 190.765625 136.351562 189.082031 C 140.8125 190.664062 143.636719 193.003906 143.636719 195.617188 C 143.636719 200.378906 134.261719 204.238281 122.695312 204.238281 C 111.125 204.238281 101.75 200.378906 101.75 195.617188 C 101.75 193.003906 104.574219 190.664062 109.035156 189.082031 C 103.605469 190.765625 100.101562 193.433594 100.101562 196.441406 C 100.101562 201.542969 110.214844 205.679688 122.695312 205.679688 Z M 122.695312 205.679688 " fill-opacity="1" fill-rule="evenodd"/></g><path fill="#3f4446" d="M 125.351562 169.941406 C 125.417969 170.347656 125.402344 170.753906 125.308594 171.15625 C 125.210938 171.554688 125.042969 171.925781 124.800781 172.257812 C 124.558594 172.59375 124.261719 172.871094 123.910156 173.085938 C 123.558594 173.304688 123.175781 173.445312 122.769531 173.511719 C 122.359375 173.578125 121.953125 173.5625 121.550781 173.46875 C 121.148438 173.375 120.777344 173.207031 120.441406 172.964844 C 120.105469 172.722656 119.828125 172.425781 119.609375 172.074219 C 119.394531 171.722656 119.25 171.34375 119.183594 170.9375 C 119.117188 170.53125 119.132812 170.125 119.230469 169.722656 C 119.324219 169.320312 119.492188 168.953125 119.734375 168.617188 C 119.976562 168.285156 120.273438 168.007812 120.625 167.792969 C 120.980469 167.574219 121.359375 167.433594 121.769531 167.367188 C 122.175781 167.300781 122.582031 167.316406 122.984375 167.410156 C 123.390625 167.503906 123.757812 167.671875 124.09375 167.914062 C 124.429688 168.15625 124.707031 168.453125 124.925781 168.804688 C 125.144531 169.152344 125.285156 169.535156 125.351562 169.941406 Z M 125.351562 169.941406 " fill-opacity="1" fill-rule="nonzero"/><g clip-path="url(#96e23f14a6)"><path fill="#3f4446" d="M 131.058594 148.476562 C 131.105469 148.621094 131.023438 148.730469 130.980469 148.835938 C 130.496094 149.992188 129.894531 151.09375 129.34375 152.21875 C 128.417969 154.105469 127.460938 155.976562 126.675781 157.933594 C 126.210938 159.09375 125.691406 160.234375 125.214844 161.394531 C 125.175781 161.484375 125.144531 161.664062 125.03125 161.613281 C 124.898438 161.550781 125.023438 161.410156 125.066406 161.316406 C 125.65625 159.875 126.242188 158.429688 126.851562 156.996094 C 127.472656 155.539062 128.21875 154.140625 128.910156 152.722656 C 129.574219 151.359375 130.25 150.007812 130.921875 148.652344 C 130.949219 148.589844 130.960938 148.519531 131.058594 148.476562 Z M 113.980469 148.605469 C 114.09375 148.988281 114.203125 149.371094 114.359375 149.742188 C 114.902344 151.042969 115.507812 152.328125 115.945312 153.667969 C 116.828125 156.359375 117.96875 158.953125 118.914062 161.625 C 118.941406 161.703125 118.949219 161.867188 119.082031 161.820312 C 119.199219 161.773438 119.09375 161.65625 119.070312 161.578125 C 118.851562 160.851562 118.566406 160.144531 118.289062 159.441406 C 116.867188 155.84375 115.542969 152.210938 114.136719 148.609375 C 114.109375 148.535156 114.097656 148.441406 113.980469 148.414062 C 113.945312 148.488281 113.964844 148.546875 113.980469 148.605469 Z M 130.128906 165.816406 C 131.238281 165.308594 132.34375 164.792969 133.453125 164.28125 C 135.148438 163.492188 136.832031 162.667969 138.539062 161.898438 C 139.855469 161.308594 141.195312 160.765625 142.457031 160.066406 C 142.550781 160.011719 142.671875 159.992188 142.742188 159.816406 C 138.320312 161.78125 134.023438 163.882812 129.683594 165.898438 C 129.855469 165.949219 129.992188 165.878906 130.128906 165.816406 Z M 131.058594 168.945312 C 132.582031 168.898438 134.101562 168.996094 135.625 168.941406 C 136.714844 168.898438 137.804688 168.972656 138.898438 168.992188 C 140.257812 169.015625 141.617188 168.9375 142.976562 168.886719 C 143.527344 168.863281 144.082031 168.847656 144.632812 168.828125 C 144.695312 168.828125 144.78125 168.828125 144.777344 168.753906 C 144.777344 168.664062 144.683594 168.699219 144.628906 168.699219 C 144.316406 168.710938 144 168.726562 143.6875 168.738281 C 141.019531 168.84375 138.351562 168.753906 135.6875 168.839844 C 134.035156 168.890625 132.382812 168.734375 130.730469 168.808594 C 130.636719 168.8125 130.535156 168.785156 130.441406 168.890625 C 130.652344 168.957031 130.855469 168.953125 131.058594 168.945312 Z M 113.695312 168.757812 C 113.378906 168.746094 113.066406 168.742188 112.75 168.734375 C 111.441406 168.703125 110.140625 168.851562 108.835938 168.835938 C 107.628906 168.816406 106.421875 168.769531 105.21875 168.753906 C 103.429688 168.726562 101.636719 168.765625 99.847656 168.789062 C 99.777344 168.792969 99.664062 168.765625 99.660156 168.863281 C 99.652344 168.984375 99.773438 168.933594 99.835938 168.933594 C 100.699219 168.941406 101.558594 168.949219 102.417969 168.941406 C 105.515625 168.914062 108.609375 168.960938 111.707031 168.886719 C 112.34375 168.875 112.980469 168.886719 113.621094 168.882812 C 113.714844 168.882812 113.820312 168.914062 113.902344 168.824219 C 113.847656 168.742188 113.765625 168.757812 113.695312 168.757812 Z M 102.171875 159.933594 C 103.703125 160.648438 105.234375 161.359375 106.707031 162.199219 C 108.714844 163.347656 110.851562 164.242188 112.886719 165.34375 C 113.421875 165.628906 113.984375 165.859375 114.535156 166.113281 C 114.582031 166.132812 114.648438 166.207031 114.6875 166.113281 C 114.714844 166.050781 114.636719 166.03125 114.589844 166.007812 C 114.441406 165.929688 114.292969 165.847656 114.140625 165.773438 C 112.859375 165.140625 111.570312 164.527344 110.296875 163.875 C 107.5625 162.480469 104.824219 161.085938 102.066406 159.726562 C 102.003906 159.695312 101.941406 159.628906 101.828125 159.691406 C 101.917969 159.828125 102.050781 159.878906 102.171875 159.933594 Z M 122.273438 151.328125 C 122.261719 152.335938 122.242188 153.339844 122.234375 154.347656 C 122.214844 156.578125 122.183594 158.804688 122.222656 161.035156 C 122.222656 161.132812 122.1875 161.296875 122.332031 161.289062 C 122.460938 161.285156 122.402344 161.128906 122.40625 161.039062 C 122.464844 159.402344 122.339844 157.765625 122.390625 156.128906 C 122.441406 154.585938 122.40625 153.039062 122.402344 151.496094 C 122.402344 151.398438 122.433594 151.292969 122.335938 151.203125 C 122.277344 151.238281 122.273438 151.28125 122.273438 151.328125 Z M 135.046875 156.296875 C 134.992188 156.320312 134.945312 156.359375 134.898438 156.402344 C 134.292969 156.980469 133.695312 157.5625 133.082031 158.132812 C 132.367188 158.800781 131.632812 159.441406 130.925781 160.113281 C 129.921875 161.066406 128.953125 162.046875 127.996094 163.046875 C 127.933594 163.113281 127.875 163.183594 127.816406 163.257812 C 127.789062 163.292969 127.765625 163.339844 127.804688 163.382812 C 127.851562 163.433594 127.902344 163.398438 127.941406 163.359375 C 128.050781 163.25 128.15625 163.140625 128.265625 163.03125 C 128.84375 162.457031 129.449219 161.910156 129.992188 161.308594 C 130.769531 160.441406 131.601562 159.636719 132.484375 158.882812 C 133.34375 158.148438 134.136719 157.34375 134.949219 156.5625 C 135.015625 156.496094 135.070312 156.425781 135.125 156.367188 C 135.121094 156.296875 135.082031 156.277344 135.046875 156.296875 Z M 109.652344 156.082031 C 109.691406 156.203125 109.789062 156.28125 109.875 156.367188 C 111.742188 158.207031 113.507812 160.144531 115.371094 161.984375 C 115.785156 162.398438 116.179688 162.828125 116.574219 163.261719 C 116.617188 163.308594 116.671875 163.382812 116.746094 163.316406 C 116.816406 163.253906 116.75 163.195312 116.703125 163.144531 C 116.539062 162.960938 116.371094 162.777344 116.203125 162.601562 C 115.097656 161.445312 113.941406 160.34375 112.824219 159.199219 C 111.941406 158.300781 111.113281 157.347656 110.191406 156.488281 C 110.027344 156.335938 109.863281 156.183594 109.695312 156.03125 C 109.679688 156.046875 109.664062 156.066406 109.652344 156.082031 Z M 117.910156 162.382812 C 117.890625 162.203125 117.78125 162.0625 117.6875 161.921875 C 116.925781 160.746094 116.175781 159.566406 115.375 158.421875 C 115.207031 158.183594 115.042969 157.941406 114.875 157.703125 C 114.847656 157.660156 114.804688 157.605469 114.746094 157.648438 C 114.695312 157.6875 114.738281 157.734375 114.757812 157.773438 C 114.777344 157.808594 114.796875 157.839844 114.820312 157.871094 C 115.65625 159.101562 116.539062 160.304688 117.28125 161.601562 C 117.445312 161.886719 117.660156 162.148438 117.851562 162.421875 C 117.871094 162.40625 117.890625 162.394531 117.910156 162.382812 Z M 120.839844 161.300781 C 120.835938 161.058594 120.742188 160.835938 120.699219 160.601562 C 120.40625 159.058594 120.117188 157.511719 119.824219 155.96875 C 119.804688 155.863281 119.804688 155.667969 119.695312 155.691406 C 119.558594 155.71875 119.636719 155.898438 119.660156 156.007812 C 119.949219 157.417969 120.300781 158.816406 120.476562 160.253906 C 120.527344 160.644531 120.640625 161.027344 120.757812 161.417969 C 120.84375 161.378906 120.839844 161.335938 120.839844 161.300781 Z M 115.496094 164.242188 C 115.265625 164.027344 115 163.855469 114.742188 163.675781 C 113.882812 163.082031 113.019531 162.488281 112.199219 161.84375 C 111.9375 161.640625 111.664062 161.457031 111.390625 161.269531 C 111.339844 161.234375 111.257812 161.183594 111.210938 161.269531 C 111.175781 161.332031 111.253906 161.375 111.300781 161.410156 C 111.457031 161.523438 111.613281 161.632812 111.773438 161.738281 C 112.046875 161.925781 112.328125 162.097656 112.597656 162.289062 C 113.535156 162.957031 114.417969 163.699219 115.378906 164.335938 C 115.457031 164.386719 115.519531 164.492188 115.644531 164.441406 C 115.628906 164.34375 115.554688 164.296875 115.496094 164.242188 Z M 114.121094 167.332031 C 114.089844 167.3125 114.058594 167.285156 114.023438 167.28125 C 113.304688 167.160156 112.613281 166.921875 111.898438 166.785156 C 111.039062 166.621094 110.214844 166.320312 109.359375 166.140625 C 109.207031 166.109375 109.046875 166.03125 108.871094 166.113281 C 108.953125 166.226562 109.066406 166.234375 109.164062 166.261719 C 109.847656 166.433594 110.535156 166.589844 111.222656 166.742188 C 111.925781 166.898438 112.613281 167.113281 113.3125 167.289062 C 113.574219 167.351562 113.839844 167.410156 114.113281 167.386719 C 114.117188 167.367188 114.121094 167.347656 114.121094 167.332031 Z M 129.148438 164.597656 C 129.359375 164.445312 129.566406 164.289062 129.78125 164.136719 C 130.796875 163.410156 131.8125 162.683594 132.828125 161.953125 C 132.945312 161.867188 133.050781 161.765625 133.160156 161.667969 C 133.195312 161.632812 133.257812 161.59375 133.203125 161.535156 C 133.164062 161.496094 133.117188 161.539062 133.078125 161.5625 C 132.902344 161.683594 132.730469 161.808594 132.550781 161.933594 C 131.953125 162.34375 131.429688 162.863281 130.808594 163.25 C 130.230469 163.609375 129.671875 164.007812 129.136719 164.429688 C 129.050781 164.492188 128.953125 164.546875 128.925781 164.675781 C 129.035156 164.707031 129.089844 164.640625 129.148438 164.597656 Z M 126.976562 161.910156 C 127.550781 160.984375 128.125 160.058594 128.777344 159.183594 C 129.023438 158.851562 129.246094 158.5 129.449219 158.140625 C 129.488281 158.074219 129.550781 157.980469 129.476562 157.933594 C 129.394531 157.882812 129.351562 157.992188 129.316406 158.054688 C 128.523438 159.367188 127.625 160.613281 126.800781 161.90625 C 126.699219 162.0625 126.578125 162.210938 126.542969 162.40625 C 126.75 162.289062 126.863281 162.097656 126.976562 161.910156 Z M 123.769531 161.339844 C 123.789062 161.261719 123.816406 161.183594 123.832031 161.101562 C 124.128906 159.566406 124.398438 158.027344 124.753906 156.503906 C 124.792969 156.347656 124.816406 156.1875 124.839844 156.027344 C 124.847656 155.96875 124.851562 155.890625 124.773438 155.878906 C 124.695312 155.871094 124.6875 155.953125 124.667969 156.007812 C 124.660156 156.039062 124.660156 156.070312 124.65625 156.101562 C 124.445312 157.511719 124.128906 158.902344 123.851562 160.300781 C 123.78125 160.636719 123.714844 160.984375 123.707031 161.332031 C 123.726562 161.335938 123.75 161.339844 123.769531 161.339844 Z M 135.316406 166.292969 C 133.644531 166.644531 131.96875 166.988281 130.320312 167.445312 C 130.664062 167.496094 135.210938 166.441406 135.316406 166.292969 Z M 108.292969 166.003906 C 108.316406 166.007812 108.355469 165.980469 108.363281 165.960938 C 108.382812 165.914062 108.34375 165.890625 108.308594 165.878906 C 108.042969 165.804688 107.78125 165.699219 107.492188 165.734375 C 107.742188 165.882812 108.007812 165.972656 108.292969 166.003906 Z M 114 156.539062 C 113.980469 156.535156 113.941406 156.535156 113.941406 156.542969 C 113.933594 156.570312 113.925781 156.605469 113.9375 156.628906 C 114.042969 156.824219 114.171875 157.007812 114.316406 157.175781 C 114.34375 157.207031 114.378906 157.222656 114.417969 157.203125 C 114.433594 157.195312 114.441406 157.167969 114.445312 157.160156 C 114.445312 157.066406 114.074219 156.558594 114 156.539062 Z M 133.699219 161.074219 C 133.664062 161.105469 133.640625 161.152344 133.667969 161.195312 C 133.703125 161.246094 133.753906 161.21875 133.792969 161.195312 C 133.984375 161.074219 134.160156 160.929688 134.28125 160.730469 C 134.058594 160.800781 133.875 160.933594 133.699219 161.074219 Z M 119.527344 155.050781 C 119.535156 155.09375 119.550781 155.144531 119.609375 155.136719 C 119.65625 155.132812 119.671875 155.09375 119.664062 155.050781 C 119.609375 154.808594 119.597656 154.546875 119.425781 154.335938 C 119.402344 154.582031 119.46875 154.816406 119.527344 155.050781 Z M 125.066406 154.632812 C 125.070312 154.613281 125.046875 154.570312 125.027344 154.5625 C 124.980469 154.542969 124.957031 154.582031 124.949219 154.617188 C 124.890625 154.84375 124.808594 155.0625 124.890625 155.304688 C 125.042969 155.101562 125.035156 154.863281 125.066406 154.632812 Z M 130.269531 156.75 C 130.097656 156.976562 129.867188 157.164062 129.8125 157.46875 C 130.007812 157.257812 130.207031 157.046875 130.269531 156.75 Z M 109.886719 160.390625 C 110.042969 160.613281 110.269531 160.738281 110.523438 160.832031 C 110.359375 160.621094 110.160156 160.449219 109.886719 160.390625 Z M 135.894531 166.1875 C 136.144531 166.144531 136.410156 166.15625 136.613281 165.964844 C 136.363281 166 136.089844 165.980469 135.894531 166.1875 Z M 135.894531 166.1875 " fill-opacity="1" fill-rule="nonzero"/><path fill="#3f4446" d="M 131.058594 148.476562 C 131.105469 148.621094 131.023438 148.730469 130.980469 148.835938 C 130.496094 149.992188 129.894531 151.09375 129.34375 152.21875 C 128.417969 154.105469 127.460938 155.976562 126.675781 157.933594 C 126.210938 159.09375 125.691406 160.234375 125.214844 161.394531 C 125.175781 161.484375 125.144531 161.664062 125.03125 161.613281 C 124.898438 161.550781 125.023438 161.410156 125.066406 161.316406 C 125.65625 159.875 126.242188 158.429688 126.851562 156.996094 C 127.472656 155.539062 128.21875 154.140625 128.910156 152.722656 C 129.574219 151.359375 130.25 150.007812 130.921875 148.652344 C 130.949219 148.589844 130.960938 148.519531 131.058594 148.476562 Z M 113.980469 148.605469 C 114.09375 148.988281 114.203125 149.371094 114.359375 149.742188 C 114.902344 151.042969 115.507812 152.328125 115.945312 153.667969 C 116.828125 156.359375 117.96875 158.953125 118.914062 161.625 C 118.941406 161.703125 118.949219 161.867188 119.082031 161.820312 C 119.199219 161.773438 119.09375 161.65625 119.070312 161.578125 C 118.851562 160.851562 118.566406 160.144531 118.289062 159.441406 C 116.867188 155.84375 115.542969 152.210938 114.136719 148.609375 C 114.109375 148.535156 114.097656 148.441406 113.980469 148.414062 C 113.945312 148.488281 113.964844 148.546875 113.980469 148.605469 Z M 130.128906 165.816406 C 131.238281 165.308594 132.34375 164.792969 133.453125 164.28125 C 135.148438 163.492188 136.832031 162.667969 138.539062 161.898438 C 139.855469 161.308594 141.195312 160.765625 142.457031 160.066406 C 142.550781 160.011719 142.671875 159.992188 142.742188 159.816406 C 138.320312 161.78125 134.023438 163.882812 129.683594 165.898438 C 129.855469 165.949219 129.992188 165.878906 130.128906 165.816406 Z M 131.058594 168.945312 C 132.582031 168.898438 134.101562 168.996094 135.625 168.941406 C 136.714844 168.898438 137.804688 168.972656 138.898438 168.992188 C 140.257812 169.015625 141.617188 168.9375 142.976562 168.886719 C 143.527344 168.863281 144.082031 168.847656 144.632812 168.828125 C 144.695312 168.828125 144.78125 168.828125 144.777344 168.753906 C 144.777344 168.664062 144.683594 168.699219 144.628906 168.699219 C 144.316406 168.710938 144 168.726562 143.6875 168.738281 C 141.019531 168.84375 138.351562 168.753906 135.6875 168.839844 C 134.035156 168.890625 132.382812 168.734375 130.730469 168.808594 C 130.636719 168.8125 130.535156 168.785156 130.441406 168.890625 C 130.652344 168.957031 130.855469 168.953125 131.058594 168.945312 Z M 113.695312 168.757812 C 113.378906 168.746094 113.066406 168.742188 112.75 168.734375 C 111.441406 168.703125 110.140625 168.851562 108.835938 168.835938 C 107.628906 168.816406 106.421875 168.769531 105.21875 168.753906 C 103.429688 168.726562 101.636719 168.765625 99.847656 168.789062 C 99.777344 168.792969 99.664062 168.765625 99.660156 168.863281 C 99.652344 168.984375 99.773438 168.933594 99.835938 168.933594 C 100.699219 168.941406 101.558594 168.949219 102.417969 168.941406 C 105.515625 168.914062 108.609375 168.960938 111.707031 168.886719 C 112.34375 168.875 112.980469 168.886719 113.621094 168.882812 C 113.714844 168.882812 113.820312 168.914062 113.902344 168.824219 C 113.847656 168.742188 113.765625 168.757812 113.695312 168.757812 Z M 102.171875 159.933594 C 103.703125 160.648438 105.234375 161.359375 106.707031 162.199219 C 108.714844 163.347656 110.851562 164.242188 112.886719 165.34375 C 113.421875 165.628906 113.984375 165.859375 114.535156 166.113281 C 114.582031 166.132812 114.648438 166.207031 114.6875 166.113281 C 114.714844 166.050781 114.636719 166.03125 114.589844 166.007812 C 114.441406 165.929688 114.292969 165.847656 114.140625 165.773438 C 112.859375 165.140625 111.570312 164.527344 110.296875 163.875 C 107.5625 162.480469 104.824219 161.085938 102.066406 159.726562 C 102.003906 159.695312 101.941406 159.628906 101.828125 159.691406 C 101.917969 159.828125 102.050781 159.878906 102.171875 159.933594 Z M 122.273438 151.328125 C 122.261719 152.335938 122.242188 153.339844 122.234375 154.347656 C 122.214844 156.578125 122.183594 158.804688 122.222656 161.035156 C 122.222656 161.132812 122.1875 161.296875 122.332031 161.289062 C 122.460938 161.285156 122.402344 161.128906 122.40625 161.039062 C 122.464844 159.402344 122.339844 157.765625 122.390625 156.128906 C 122.441406 154.585938 122.40625 153.039062 122.402344 151.496094 C 122.402344 151.398438 122.433594 151.292969 122.335938 151.203125 C 122.277344 151.238281 122.273438 151.28125 122.273438 151.328125 Z M 135.046875 156.296875 C 134.992188 156.320312 134.945312 156.359375 134.898438 156.402344 C 134.292969 156.980469 133.695312 157.5625 133.082031 158.132812 C 132.367188 158.800781 131.632812 159.441406 130.925781 160.113281 C 129.921875 161.066406 128.953125 162.046875 127.996094 163.046875 C 127.933594 163.113281 127.875 163.183594 127.816406 163.257812 C 127.789062 163.292969 127.765625 163.339844 127.804688 163.382812 C 127.851562 163.433594 127.902344 163.398438 127.941406 163.359375 C 128.050781 163.25 128.15625 163.140625 128.265625 163.03125 C 128.84375 162.457031 129.449219 161.910156 129.992188 161.308594 C 130.769531 160.441406 131.601562 159.636719 132.484375 158.882812 C 133.34375 158.148438 134.136719 157.34375 134.949219 156.5625 C 135.015625 156.496094 135.070312 156.425781 135.125 156.367188 C 135.121094 156.296875 135.082031 156.277344 135.046875 156.296875 Z M 109.652344 156.082031 C 109.691406 156.203125 109.789062 156.28125 109.875 156.367188 C 111.742188 158.207031 113.507812 160.144531 115.371094 161.984375 C 115.785156 162.398438 116.179688 162.828125 116.574219 163.261719 C 116.617188 163.308594 116.671875 163.382812 116.746094 163.316406 C 116.816406 163.253906 116.75 163.195312 116.703125 163.144531 C 116.539062 162.960938 116.371094 162.777344 116.203125 162.601562 C 115.097656 161.445312 113.941406 160.34375 112.824219 159.199219 C 111.941406 158.300781 111.113281 157.347656 110.191406 156.488281 C 110.027344 156.335938 109.863281 156.183594 109.695312 156.03125 C 109.679688 156.046875 109.664062 156.066406 109.652344 156.082031 Z M 117.910156 162.382812 C 117.890625 162.203125 117.78125 162.0625 117.6875 161.921875 C 116.925781 160.746094 116.175781 159.566406 115.375 158.421875 C 115.207031 158.183594 115.042969 157.941406 114.875 157.703125 C 114.847656 157.660156 114.804688 157.605469 114.746094 157.648438 C 114.695312 157.6875 114.738281 157.734375 114.757812 157.773438 C 114.777344 157.808594 114.796875 157.839844 114.820312 157.871094 C 115.65625 159.101562 116.539062 160.304688 117.28125 161.601562 C 117.445312 161.886719 117.660156 162.148438 117.851562 162.421875 C 117.871094 162.40625 117.890625 162.394531 117.910156 162.382812 Z M 120.839844 161.300781 C 120.835938 161.058594 120.742188 160.835938 120.699219 160.601562 C 120.40625 159.058594 120.117188 157.511719 119.824219 155.96875 C 119.804688 155.863281 119.804688 155.667969 119.695312 155.691406 C 119.558594 155.71875 119.636719 155.898438 119.660156 156.007812 C 119.949219 157.417969 120.300781 158.816406 120.476562 160.253906 C 120.527344 160.644531 120.640625 161.027344 120.757812 161.417969 C 120.84375 161.378906 120.839844 161.335938 120.839844 161.300781 Z M 115.496094 164.242188 C 115.265625 164.027344 115 163.855469 114.742188 163.675781 C 113.882812 163.082031 113.019531 162.488281 112.199219 161.84375 C 111.9375 161.640625 111.664062 161.457031 111.390625 161.269531 C 111.339844 161.234375 111.257812 161.183594 111.210938 161.269531 C 111.175781 161.332031 111.253906 161.375 111.300781 161.410156 C 111.457031 161.523438 111.613281 161.632812 111.773438 161.738281 C 112.046875 161.925781 112.328125 162.097656 112.597656 162.289062 C 113.535156 162.957031 114.417969 163.699219 115.378906 164.335938 C 115.457031 164.386719 115.519531 164.492188 115.644531 164.441406 C 115.628906 164.34375 115.554688 164.296875 115.496094 164.242188 Z M 114.121094 167.332031 C 114.089844 167.3125 114.058594 167.285156 114.023438 167.28125 C 113.304688 167.160156 112.613281 166.921875 111.898438 166.785156 C 111.039062 166.621094 110.214844 166.320312 109.359375 166.140625 C 109.207031 166.109375 109.046875 166.03125 108.871094 166.113281 C 108.953125 166.226562 109.066406 166.234375 109.164062 166.261719 C 109.847656 166.433594 110.535156 166.589844 111.222656 166.742188 C 111.925781 166.898438 112.613281 167.113281 113.3125 167.289062 C 113.574219 167.351562 113.839844 167.410156 114.113281 167.386719 C 114.117188 167.367188 114.121094 167.347656 114.121094 167.332031 Z M 129.148438 164.597656 C 129.359375 164.445312 129.566406 164.289062 129.78125 164.136719 C 130.796875 163.410156 131.8125 162.683594 132.828125 161.953125 C 132.945312 161.867188 133.050781 161.765625 133.160156 161.667969 C 133.195312 161.632812 133.257812 161.59375 133.203125 161.535156 C 133.164062 161.496094 133.117188 161.539062 133.078125 161.5625 C 132.902344 161.683594 132.730469 161.808594 132.550781 161.933594 C 131.953125 162.34375 131.429688 162.863281 130.808594 163.25 C 130.230469 163.609375 129.671875 164.007812 129.136719 164.429688 C 129.050781 164.492188 128.953125 164.546875 128.925781 164.675781 C 129.035156 164.707031 129.089844 164.640625 129.148438 164.597656 Z M 126.976562 161.910156 C 127.550781 160.984375 128.125 160.058594 128.777344 159.183594 C 129.023438 158.851562 129.246094 158.5 129.449219 158.140625 C 129.488281 158.074219 129.550781 157.980469 129.476562 157.933594 C 129.394531 157.882812 129.351562 157.992188 129.316406 158.054688 C 128.523438 159.367188 127.625 160.613281 126.800781 161.90625 C 126.699219 162.0625 126.578125 162.210938 126.542969 162.40625 C 126.75 162.289062 126.863281 162.097656 126.976562 161.910156 Z M 123.769531 161.339844 C 123.789062 161.261719 123.816406 161.183594 123.832031 161.101562 C 124.128906 159.566406 124.398438 158.027344 124.753906 156.503906 C 124.792969 156.347656 124.816406 156.1875 124.839844 156.027344 C 124.847656 155.96875 124.851562 155.890625 124.773438 155.878906 C 124.695312 155.871094 124.6875 155.953125 124.667969 156.007812 C 124.660156 156.039062 124.660156 156.070312 124.65625 156.101562 C 124.445312 157.511719 124.128906 158.902344 123.851562 160.300781 C 123.78125 160.636719 123.714844 160.984375 123.707031 161.332031 C 123.726562 161.335938 123.75 161.339844 123.769531 161.339844 Z M 135.316406 166.292969 C 133.644531 166.644531 131.96875 166.988281 130.320312 167.445312 C 130.664062 167.496094 135.210938 166.441406 135.316406 166.292969 Z M 108.292969 166.003906 C 108.316406 166.007812 108.355469 165.980469 108.363281 165.960938 C 108.382812 165.914062 108.34375 165.890625 108.308594 165.878906 C 108.042969 165.804688 107.78125 165.699219 107.492188 165.734375 C 107.742188 165.882812 108.007812 165.972656 108.292969 166.003906 Z M 114 156.539062 C 113.980469 156.535156 113.941406 156.535156 113.941406 156.542969 C 113.933594 156.570312 113.925781 156.605469 113.9375 156.628906 C 114.042969 156.824219 114.171875 157.007812 114.316406 157.175781 C 114.34375 157.207031 114.378906 157.222656 114.417969 157.203125 C 114.433594 157.195312 114.441406 157.167969 114.445312 157.160156 C 114.445312 157.066406 114.074219 156.558594 114 156.539062 Z M 133.699219 161.074219 C 133.664062 161.105469 133.640625 161.152344 133.667969 161.195312 C 133.703125 161.246094 133.753906 161.21875 133.792969 161.195312 C 133.984375 161.074219 134.160156 160.929688 134.28125 160.730469 C 134.058594 160.800781 133.875 160.933594 133.699219 161.074219 Z M 119.527344 155.050781 C 119.535156 155.09375 119.550781 155.144531 119.609375 155.136719 C 119.65625 155.132812 119.671875 155.09375 119.664062 155.050781 C 119.609375 154.808594 119.597656 154.546875 119.425781 154.335938 C 119.402344 154.582031 119.46875 154.816406 119.527344 155.050781 Z M 125.066406 154.632812 C 125.070312 154.613281 125.046875 154.570312 125.027344 154.5625 C 124.980469 154.542969 124.957031 154.582031 124.949219 154.617188 C 124.890625 154.84375 124.808594 155.0625 124.890625 155.304688 C 125.042969 155.101562 125.035156 154.863281 125.066406 154.632812 Z M 130.269531 156.75 C 130.097656 156.976562 129.867188 157.164062 129.8125 157.46875 C 130.007812 157.257812 130.207031 157.046875 130.269531 156.75 Z M 109.886719 160.390625 C 110.042969 160.613281 110.269531 160.738281 110.523438 160.832031 C 110.359375 160.621094 110.160156 160.449219 109.886719 160.390625 Z M 135.894531 166.1875 C 136.144531 166.144531 136.410156 166.15625 136.613281 165.964844 C 136.363281 166 136.089844 165.980469 135.894531 166.1875 Z M 135.894531 166.1875 " fill-opacity="1" fill-rule="nonzero"/></g><g clip-path="url(#7130e3b310)"><path fill="#3f4446" d="M 100.496094 182.738281 L 101.460938 184.910156 C 101.496094 184.996094 101.554688 185.066406 101.628906 185.121094 C 101.703125 185.175781 101.789062 185.207031 101.882812 185.214844 L 104.242188 185.464844 L 102.476562 187.054688 C 102.410156 187.113281 102.359375 187.191406 102.332031 187.277344 C 102.304688 187.367188 102.296875 187.457031 102.316406 187.546875 L 102.8125 189.871094 L 100.753906 188.683594 C 100.675781 188.636719 100.585938 188.613281 100.496094 188.613281 C 100.402344 188.613281 100.3125 188.636719 100.234375 188.683594 L 98.175781 189.871094 L 98.671875 187.546875 C 98.691406 187.457031 98.6875 187.367188 98.660156 187.277344 C 98.628906 187.191406 98.578125 187.113281 98.511719 187.054688 L 96.746094 185.464844 L 99.109375 185.214844 C 99.199219 185.207031 99.285156 185.175781 99.359375 185.121094 C 99.433594 185.066406 99.492188 184.996094 99.527344 184.910156 Z M 100.496094 182.738281 " fill-opacity="1" fill-rule="evenodd"/></g><g clip-path="url(#af11e91b77)"><path fill="#67bc45" d="M 144.382812 182.738281 L 145.347656 184.910156 C 145.382812 184.996094 145.441406 185.066406 145.515625 185.121094 C 145.589844 185.175781 145.675781 185.207031 145.769531 185.214844 L 148.132812 185.464844 L 146.363281 187.054688 C 146.296875 187.113281 146.246094 187.191406 146.21875 187.277344 C 146.191406 187.367188 146.183594 187.457031 146.203125 187.546875 L 146.699219 189.871094 L 144.640625 188.683594 C 144.5625 188.636719 144.472656 188.613281 144.382812 188.613281 C 144.289062 188.613281 144.199219 188.636719 144.121094 188.683594 L 142.066406 189.871094 L 142.558594 187.546875 C 142.578125 187.457031 142.574219 187.367188 142.546875 187.277344 C 142.515625 187.191406 142.46875 187.113281 142.398438 187.054688 L 140.632812 185.464844 L 142.996094 185.214844 C 143.085938 185.207031 143.171875 185.175781 143.246094 185.121094 C 143.320312 185.066406 143.378906 184.996094 143.417969 184.910156 Z M 144.382812 182.738281 " fill-opacity="1" fill-rule="evenodd"/></g></svg>