<svg xmlns="http://www.w3.org/2000/svg" xmlns:xlink="http://www.w3.org/1999/xlink" width="500" zoomAndPan="magnify" viewBox="0 0 375 374.999991" height="500" preserveAspectRatio="xMidYMid meet" version="1.0"><defs><g/><clipPath id="49efa1c898"><path d="M 14.824219 212 L 114.488281 212 L 114.488281 249.339844 L 14.824219 249.339844 Z M 14.824219 212 " clip-rule="nonzero"/></clipPath><clipPath id="44c7dc10be"><path d="M 13.828125 122.925781 L 113.492188 122.925781 L 113.492188 168.671875 L 13.828125 168.671875 Z M 13.828125 122.925781 " clip-rule="nonzero"/></clipPath><clipPath id="9e696993ff"><path d="M 7.421875 198.671875 L 23.761719 198.671875 L 23.761719 214.191406 L 7.421875 214.191406 Z M 7.421875 198.671875 " clip-rule="nonzero"/></clipPath><clipPath id="c4b870f1f2"><path d="M 104.203125 198.671875 L 120.542969 198.671875 L 120.542969 214.191406 L 104.203125 214.191406 Z M 104.203125 198.671875 " clip-rule="nonzero"/></clipPath></defs><g fill="#183e9f" fill-opacity="1"><g transform="translate(123.806328, 199.381649)"><g><path d="M 29.96875 -0.03125 L 24.8125 -0.03125 L 24.8125 -18.953125 C 24.8125 -19.304688 24.878906 -20.21875 25.015625 -21.6875 C 24.929688 -21.488281 24.832031 -21.203125 24.71875 -20.828125 C 24.601562 -20.460938 24.492188 -20.128906 24.390625 -19.828125 C 24.296875 -19.523438 24.195312 -19.234375 24.09375 -18.953125 L 17.265625 0 L 14.453125 0 L 7.4375 -18.953125 C 7.332031 -19.234375 7.226562 -19.523438 7.125 -19.828125 C 7.03125 -20.128906 6.925781 -20.460938 6.8125 -20.828125 C 6.695312 -21.203125 6.597656 -21.488281 6.515625 -21.6875 C 6.515625 -21.457031 6.546875 -21.023438 6.609375 -20.390625 C 6.671875 -19.753906 6.703125 -19.273438 6.703125 -18.953125 L 6.703125 -0.03125 L 2.546875 -0.03125 L 2.546875 -25.578125 C 2.546875 -25.609375 2.5 -25.800781 2.40625 -26.15625 C 2.320312 -26.507812 2.234375 -26.875 2.140625 -27.25 C 2.054688 -27.632812 2.015625 -27.851562 2.015625 -27.90625 L 9.34375 -27.90625 L 15.28125 -11.890625 C 15.5625 -11.128906 15.929688 -9.59375 16.390625 -7.28125 C 16.441406 -7.457031 16.578125 -8.097656 16.796875 -9.203125 C 17.015625 -10.304688 17.222656 -11.15625 17.421875 -11.75 L 23.25 -27.90625 L 29.96875 -27.90625 Z M 29.96875 -0.03125 "/></g></g></g><g fill="#183e9f" fill-opacity="1"><g transform="translate(155.746044, 199.381649)"><g><path d="M 17.765625 -11.203125 C 17.765625 -9.679688 17.117188 -8.921875 15.828125 -8.921875 L 5.828125 -8.921875 C 5.828125 -7.296875 6.257812 -5.835938 7.125 -4.546875 C 7.988281 -3.265625 9.195312 -2.625 10.75 -2.625 C 11.539062 -2.625 12.359375 -2.816406 13.203125 -3.203125 C 14.054688 -3.585938 14.773438 -4.070312 15.359375 -4.65625 L 17.3125 -1.59375 C 16.519531 -0.9375 15.484375 -0.4375 14.203125 -0.09375 C 12.921875 0.25 11.691406 0.421875 10.515625 0.421875 C 7.566406 0.421875 5.238281 -0.457031 3.53125 -2.21875 C 1.832031 -3.988281 0.984375 -6.363281 0.984375 -9.34375 C 0.984375 -12.164062 1.773438 -14.5625 3.359375 -16.53125 C 4.953125 -18.5 7.125 -19.484375 9.875 -19.484375 C 12.363281 -19.484375 14.300781 -18.734375 15.6875 -17.234375 C 17.070312 -15.734375 17.765625 -13.722656 17.765625 -11.203125 Z M 13 -12.765625 C 13 -13.804688 12.734375 -14.664062 12.203125 -15.34375 C 11.671875 -16.019531 10.90625 -16.359375 9.90625 -16.359375 C 8.894531 -16.359375 7.992188 -15.882812 7.203125 -14.9375 C 6.421875 -14 6.003906 -13 5.953125 -11.9375 L 12.359375 -11.9375 C 12.785156 -11.9375 13 -12.210938 13 -12.765625 Z M 13 -12.765625 "/></g></g></g><g fill="#183e9f" fill-opacity="1"><g transform="translate(174.574466, 199.381649)"><g><path d="M 19.640625 -0.109375 L 15.015625 0.34375 C 14.816406 -0.21875 14.628906 -0.976562 14.453125 -1.9375 C 13.941406 -1.207031 13.179688 -0.625 12.171875 -0.1875 C 11.171875 0.238281 10.175781 0.453125 9.1875 0.453125 C 6.625 0.453125 4.628906 -0.515625 3.203125 -2.453125 C 1.773438 -4.398438 1.0625 -6.695312 1.0625 -9.34375 C 1.0625 -12.238281 1.832031 -14.640625 3.375 -16.546875 C 4.914062 -18.453125 7.09375 -19.40625 9.90625 -19.40625 C 11.738281 -19.40625 13.148438 -19 14.140625 -18.1875 C 14.117188 -18.875 14.109375 -19.648438 14.109375 -20.515625 L 14.109375 -27.21875 L 13.53125 -29.28125 L 18.6875 -29.28125 L 18.6875 -5.40625 C 18.6875 -3.050781 19.003906 -1.285156 19.640625 -0.109375 Z M 14.109375 -4.921875 L 14.109375 -11.125 C 14.109375 -12.582031 13.816406 -13.785156 13.234375 -14.734375 C 12.648438 -15.691406 11.679688 -16.171875 10.328125 -16.171875 C 9.285156 -16.171875 8.425781 -15.78125 7.75 -15 C 7.082031 -14.226562 6.632812 -13.378906 6.40625 -12.453125 C 6.175781 -11.523438 6.0625 -10.550781 6.0625 -9.53125 C 6.0625 -7.851562 6.414062 -6.332031 7.125 -4.96875 C 7.84375 -3.613281 8.960938 -2.9375 10.484375 -2.9375 C 11.171875 -2.9375 11.847656 -3.117188 12.515625 -3.484375 C 13.191406 -3.859375 13.722656 -4.335938 14.109375 -4.921875 Z M 14.109375 -4.921875 "/></g></g></g><g fill="#183e9f" fill-opacity="1"><g transform="translate(195.842198, 199.381649)"><g><path d="M 7.046875 0 L 2.484375 0 L 2.484375 -16.890625 C 2.484375 -16.910156 2.445312 -17.070312 2.375 -17.375 C 2.3125 -17.6875 2.242188 -18.019531 2.171875 -18.375 C 2.097656 -18.726562 2.0625 -18.921875 2.0625 -18.953125 L 7.046875 -18.953125 Z M 6.828125 -27.953125 C 7.410156 -27.359375 7.703125 -26.65625 7.703125 -25.84375 C 7.703125 -25.03125 7.414062 -24.335938 6.84375 -23.765625 C 6.269531 -23.191406 5.578125 -22.90625 4.765625 -22.90625 C 3.953125 -22.90625 3.257812 -23.191406 2.6875 -23.765625 C 2.113281 -24.335938 1.828125 -25.03125 1.828125 -25.84375 C 1.828125 -26.65625 2.113281 -27.351562 2.6875 -27.9375 C 3.257812 -28.53125 3.953125 -28.828125 4.765625 -28.828125 C 5.578125 -28.828125 6.265625 -28.535156 6.828125 -27.953125 Z M 6.828125 -27.953125 "/></g></g></g><g fill="#183e9f" fill-opacity="1"><g transform="translate(205.40887, 199.381649)"><g><path d="M 16.84375 -1.328125 C 15.570312 -0.691406 14.46875 -0.238281 13.53125 0.03125 C 12.59375 0.3125 11.5 0.453125 10.25 0.453125 C 7.300781 0.453125 5.019531 -0.453125 3.40625 -2.265625 C 1.789062 -4.085938 0.984375 -6.5 0.984375 -9.5 C 0.984375 -12.46875 1.878906 -14.863281 3.671875 -16.6875 C 5.460938 -18.519531 7.835938 -19.4375 10.796875 -19.4375 C 11.734375 -19.4375 12.734375 -19.269531 13.796875 -18.9375 C 14.867188 -18.613281 15.785156 -18.171875 16.546875 -17.609375 L 14.265625 -14.71875 C 12.941406 -15.707031 11.644531 -16.203125 10.375 -16.203125 C 8.894531 -16.203125 7.800781 -15.503906 7.09375 -14.109375 C 6.382812 -12.710938 6.03125 -11.195312 6.03125 -9.5625 C 6.03125 -8.425781 6.175781 -7.367188 6.46875 -6.390625 C 6.757812 -5.410156 7.285156 -4.554688 8.046875 -3.828125 C 8.804688 -3.109375 9.769531 -2.75 10.9375 -2.75 C 12.113281 -2.75 13.4375 -3.367188 14.90625 -4.609375 Z M 16.84375 -1.328125 "/></g></g></g><g fill="#183e9f" fill-opacity="1"><g transform="translate(222.560265, 199.381649)"><g><path d="M 19.671875 -0.71875 C 19.441406 -0.664062 19.09375 -0.5625 18.625 -0.40625 C 18.15625 -0.257812 17.765625 -0.140625 17.453125 -0.046875 C 17.148438 0.0351562 16.789062 0.113281 16.375 0.1875 C 15.957031 0.269531 15.582031 0.3125 15.25 0.3125 C 14.488281 0.3125 13.835938 0.078125 13.296875 -0.390625 C 12.765625 -0.867188 12.410156 -1.488281 12.234375 -2.25 C 10.960938 -0.46875 9.054688 0.421875 6.515625 0.421875 C 4.960938 0.421875 3.675781 -0.0078125 2.65625 -0.875 C 1.644531 -1.738281 1.140625 -2.929688 1.140625 -4.453125 C 1.140625 -5.773438 1.457031 -6.894531 2.09375 -7.8125 C 2.726562 -8.726562 3.59375 -9.40625 4.6875 -9.84375 C 5.78125 -10.289062 6.875 -10.609375 7.96875 -10.796875 C 9.0625 -10.992188 10.226562 -11.09375 11.46875 -11.09375 L 11.46875 -13.578125 C 11.46875 -14.566406 11.25 -15.253906 10.8125 -15.640625 C 10.382812 -16.035156 9.691406 -16.234375 8.734375 -16.234375 C 7.378906 -16.234375 5.75 -15.5 3.84375 -14.03125 L 1.984375 -17.046875 C 4.296875 -18.617188 6.863281 -19.40625 9.6875 -19.40625 C 11.71875 -19.40625 13.285156 -18.882812 14.390625 -17.84375 C 15.492188 -16.800781 16.046875 -15.265625 16.046875 -13.234375 L 16.046875 -4.953125 C 16.046875 -3.679688 16.351562 -3.046875 16.96875 -3.046875 C 17.164062 -3.046875 17.800781 -3.195312 18.875 -3.5 Z M 11.46875 -7.09375 L 11.46875 -7.96875 C 7.757812 -7.96875 5.90625 -6.953125 5.90625 -4.921875 C 5.90625 -4.359375 6.128906 -3.910156 6.578125 -3.578125 C 7.023438 -3.253906 7.539062 -3.09375 8.125 -3.09375 C 9.113281 -3.09375 9.914062 -3.503906 10.53125 -4.328125 C 11.15625 -5.148438 11.46875 -6.070312 11.46875 -7.09375 Z M 11.46875 -7.09375 "/></g></g></g><g fill="#183e9f" fill-opacity="1"><g transform="translate(241.388687, 199.381649)"><g><path d="M 7.046875 0 L 2.40625 0 L 2.40625 -27.265625 C 2.40625 -27.285156 2.375 -27.445312 2.3125 -27.75 C 2.25 -28.0625 2.175781 -28.394531 2.09375 -28.75 C 2.019531 -29.101562 1.984375 -29.289062 1.984375 -29.3125 L 7.046875 -29.3125 Z M 7.046875 0 "/></g></g></g><g fill="#183e9f" fill-opacity="1"><g transform="translate(250.95536, 199.381649)"><g/></g></g><g fill="#183e9f" fill-opacity="1"><g transform="translate(259.721631, 199.381649)"><g><path d="M 14.984375 -5.90625 C 14.984375 -3.945312 14.242188 -2.382812 12.765625 -1.21875 C 11.296875 -0.0507812 9.554688 0.53125 7.546875 0.53125 C 5.304688 0.53125 3.195312 -0.015625 1.21875 -1.109375 L 2.859375 -4.234375 C 4.585938 -3.210938 6.023438 -2.703125 7.171875 -2.703125 C 7.984375 -2.703125 8.660156 -2.910156 9.203125 -3.328125 C 9.753906 -3.753906 10.03125 -4.359375 10.03125 -5.140625 C 10.03125 -5.828125 9.742188 -6.398438 9.171875 -6.859375 C 8.597656 -7.316406 7.90625 -7.6875 7.09375 -7.96875 C 6.28125 -8.25 5.457031 -8.570312 4.625 -8.9375 C 3.800781 -9.3125 3.101562 -9.878906 2.53125 -10.640625 C 1.957031 -11.398438 1.671875 -12.351562 1.671875 -13.5 C 1.671875 -15.40625 2.398438 -16.867188 3.859375 -17.890625 C 5.328125 -18.921875 7.039062 -19.4375 9 -19.4375 C 11.15625 -19.4375 13.023438 -19.046875 14.609375 -18.265625 L 13 -15.0625 C 11.882812 -15.925781 10.625 -16.359375 9.21875 -16.359375 C 8.507812 -16.359375 7.898438 -16.1875 7.390625 -15.84375 C 6.890625 -15.5 6.640625 -14.992188 6.640625 -14.328125 C 6.640625 -13.691406 6.921875 -13.171875 7.484375 -12.765625 C 8.054688 -12.359375 8.753906 -12.007812 9.578125 -11.71875 C 10.410156 -11.425781 11.234375 -11.085938 12.046875 -10.703125 C 12.859375 -10.328125 13.550781 -9.738281 14.125 -8.9375 C 14.695312 -8.132812 14.984375 -7.125 14.984375 -5.90625 Z M 14.984375 -5.90625 "/></g></g></g><g fill="#183e9f" fill-opacity="1"><g transform="translate(276.110743, 199.381649)"><g><path d="M 0.984375 -9.5 C 0.984375 -12.289062 1.828125 -14.644531 3.515625 -16.5625 C 5.210938 -18.476562 7.445312 -19.4375 10.21875 -19.4375 C 13.007812 -19.4375 15.242188 -18.484375 16.921875 -16.578125 C 18.597656 -14.671875 19.4375 -12.304688 19.4375 -9.484375 C 19.4375 -6.671875 18.597656 -4.3125 16.921875 -2.40625 C 15.242188 -0.5 13.007812 0.453125 10.21875 0.453125 C 7.425781 0.453125 5.1875 -0.5 3.5 -2.40625 C 1.820312 -4.3125 0.984375 -6.675781 0.984375 -9.5 Z M 10.21875 -16.3125 C 9.144531 -16.3125 8.269531 -15.90625 7.59375 -15.09375 C 6.925781 -14.28125 6.5 -13.40625 6.3125 -12.46875 C 6.125 -11.53125 6.03125 -10.523438 6.03125 -9.453125 C 6.03125 -8.390625 6.125 -7.382812 6.3125 -6.4375 C 6.5 -5.5 6.925781 -4.625 7.59375 -3.8125 C 8.269531 -3 9.144531 -2.59375 10.21875 -2.59375 C 11.050781 -2.59375 11.765625 -2.804688 12.359375 -3.234375 C 12.960938 -3.671875 13.394531 -4.253906 13.65625 -4.984375 C 13.925781 -5.722656 14.117188 -6.445312 14.234375 -7.15625 C 14.347656 -7.875 14.40625 -8.640625 14.40625 -9.453125 C 14.40625 -10.265625 14.347656 -11.023438 14.234375 -11.734375 C 14.117188 -12.453125 13.925781 -13.175781 13.65625 -13.90625 C 13.394531 -14.644531 12.960938 -15.226562 12.359375 -15.65625 C 11.765625 -16.09375 11.050781 -16.3125 10.21875 -16.3125 Z M 10.21875 -16.3125 "/></g></g></g><g fill="#183e9f" fill-opacity="1"><g transform="translate(296.539967, 199.381649)"><g><path d="M 16.84375 -1.328125 C 15.570312 -0.691406 14.46875 -0.238281 13.53125 0.03125 C 12.59375 0.3125 11.5 0.453125 10.25 0.453125 C 7.300781 0.453125 5.019531 -0.453125 3.40625 -2.265625 C 1.789062 -4.085938 0.984375 -6.5 0.984375 -9.5 C 0.984375 -12.46875 1.878906 -14.863281 3.671875 -16.6875 C 5.460938 -18.519531 7.835938 -19.4375 10.796875 -19.4375 C 11.734375 -19.4375 12.734375 -19.269531 13.796875 -18.9375 C 14.867188 -18.613281 15.785156 -18.171875 16.546875 -17.609375 L 14.265625 -14.71875 C 12.941406 -15.707031 11.644531 -16.203125 10.375 -16.203125 C 8.894531 -16.203125 7.800781 -15.503906 7.09375 -14.109375 C 6.382812 -12.710938 6.03125 -11.195312 6.03125 -9.5625 C 6.03125 -8.425781 6.175781 -7.367188 6.46875 -6.390625 C 6.757812 -5.410156 7.285156 -4.554688 8.046875 -3.828125 C 8.804688 -3.109375 9.769531 -2.75 10.9375 -2.75 C 12.113281 -2.75 13.4375 -3.367188 14.90625 -4.609375 Z M 16.84375 -1.328125 "/></g></g></g><g fill="#183e9f" fill-opacity="1"><g transform="translate(313.691362, 199.381649)"><g><path d="M 7.046875 0 L 2.484375 0 L 2.484375 -16.890625 C 2.484375 -16.910156 2.445312 -17.070312 2.375 -17.375 C 2.3125 -17.6875 2.242188 -18.019531 2.171875 -18.375 C 2.097656 -18.726562 2.0625 -18.921875 2.0625 -18.953125 L 7.046875 -18.953125 Z M 6.828125 -27.953125 C 7.410156 -27.359375 7.703125 -26.65625 7.703125 -25.84375 C 7.703125 -25.03125 7.414062 -24.335938 6.84375 -23.765625 C 6.269531 -23.191406 5.578125 -22.90625 4.765625 -22.90625 C 3.953125 -22.90625 3.257812 -23.191406 2.6875 -23.765625 C 2.113281 -24.335938 1.828125 -25.03125 1.828125 -25.84375 C 1.828125 -26.65625 2.113281 -27.351562 2.6875 -27.9375 C 3.257812 -28.53125 3.953125 -28.828125 4.765625 -28.828125 C 5.578125 -28.828125 6.265625 -28.535156 6.828125 -27.953125 Z M 6.828125 -27.953125 "/></g></g></g><g fill="#183e9f" fill-opacity="1"><g transform="translate(323.258034, 199.381649)"><g><path d="M 17.765625 -11.203125 C 17.765625 -9.679688 17.117188 -8.921875 15.828125 -8.921875 L 5.828125 -8.921875 C 5.828125 -7.296875 6.257812 -5.835938 7.125 -4.546875 C 7.988281 -3.265625 9.195312 -2.625 10.75 -2.625 C 11.539062 -2.625 12.359375 -2.816406 13.203125 -3.203125 C 14.054688 -3.585938 14.773438 -4.070312 15.359375 -4.65625 L 17.3125 -1.59375 C 16.519531 -0.9375 15.484375 -0.4375 14.203125 -0.09375 C 12.921875 0.25 11.691406 0.421875 10.515625 0.421875 C 7.566406 0.421875 5.238281 -0.457031 3.53125 -2.21875 C 1.832031 -3.988281 0.984375 -6.363281 0.984375 -9.34375 C 0.984375 -12.164062 1.773438 -14.5625 3.359375 -16.53125 C 4.953125 -18.5 7.125 -19.484375 9.875 -19.484375 C 12.363281 -19.484375 14.300781 -18.734375 15.6875 -17.234375 C 17.070312 -15.734375 17.765625 -13.722656 17.765625 -11.203125 Z M 13 -12.765625 C 13 -13.804688 12.734375 -14.664062 12.203125 -15.34375 C 11.671875 -16.019531 10.90625 -16.359375 9.90625 -16.359375 C 8.894531 -16.359375 7.992188 -15.882812 7.203125 -14.9375 C 6.421875 -14 6.003906 -13 5.953125 -11.9375 L 12.359375 -11.9375 C 12.785156 -11.9375 13 -12.210938 13 -12.765625 Z M 13 -12.765625 "/></g></g></g><g fill="#183e9f" fill-opacity="1"><g transform="translate(342.086444, 199.381649)"><g><path d="M 12.46875 -0.421875 C 10.757812 0.109375 9.257812 0.375 7.96875 0.375 C 6.3125 0.375 5.101562 -0.00390625 4.34375 -0.765625 C 3.582031 -1.523438 3.203125 -2.742188 3.203125 -4.421875 L 3.203125 -15.9375 L 0.078125 -15.9375 L 0.078125 -18.453125 C 1.046875 -18.472656 1.910156 -18.8125 2.671875 -19.46875 C 3.429688 -20.132812 4 -20.882812 4.375 -21.71875 C 4.757812 -22.5625 5.066406 -23.476562 5.296875 -24.46875 L 8.609375 -24.46875 C 8.109375 -22.3125 7.859375 -20.472656 7.859375 -18.953125 L 12.46875 -18.953125 L 11.546875 -15.9375 L 7.859375 -15.9375 L 7.859375 -5.453125 C 7.859375 -3.742188 8.390625 -2.890625 9.453125 -2.890625 C 10.035156 -2.890625 10.863281 -3.019531 11.9375 -3.28125 Z M 12.46875 -0.421875 "/></g></g></g><g fill="#183e9f" fill-opacity="1"><g transform="translate(354.549799, 199.381649)"><g><path d="M 17.46875 -18.953125 L 10.71875 0.109375 C 8.78125 5.648438 6.019531 8.421875 2.4375 8.421875 L 1.03125 8.421875 L 1.03125 5.1875 C 1.332031 5.257812 1.660156 5.296875 2.015625 5.296875 C 2.703125 5.296875 3.316406 5.132812 3.859375 4.8125 C 4.410156 4.5 4.867188 4.035156 5.234375 3.421875 C 5.609375 2.816406 5.898438 2.265625 6.109375 1.765625 C 6.328125 1.273438 6.550781 0.675781 6.78125 -0.03125 L -0.078125 -18.953125 L 4.84375 -18.953125 C 5.019531 -18.410156 5.566406 -16.863281 6.484375 -14.3125 C 7.398438 -11.757812 8.085938 -9.796875 8.546875 -8.421875 C 8.640625 -8.097656 8.742188 -7.582031 8.859375 -6.875 C 8.972656 -6.175781 9.046875 -5.738281 9.078125 -5.5625 C 9.359375 -7.1875 9.535156 -8.140625 9.609375 -8.421875 L 13.265625 -18.953125 Z M 17.46875 -18.953125 "/></g></g></g><g fill="#183e9f" fill-opacity="1"><g transform="translate(196.207771, 223.344497)"><g><path d="M 10.25 0 L 8.734375 0 L 8.734375 -5.625 L 2.9375 -5.625 L 2.9375 0 L 1.421875 0 L 1.421875 -10.8125 C 1.421875 -10.832031 1.398438 -10.921875 1.359375 -11.078125 C 1.328125 -11.242188 1.289062 -11.414062 1.25 -11.59375 C 1.207031 -11.769531 1.1875 -11.867188 1.1875 -11.890625 L 2.9375 -11.890625 L 2.9375 -6.734375 L 8.734375 -6.734375 L 8.734375 -11.890625 L 10.25 -11.890625 Z M 10.25 0 "/></g></g></g><g fill="#183e9f" fill-opacity="1"><g transform="translate(207.873342, 223.344497)"><g><path d="M 8.3125 0 L 1.40625 0 L 1.40625 -10.8125 C 1.40625 -10.832031 1.382812 -10.921875 1.34375 -11.078125 C 1.3125 -11.242188 1.273438 -11.414062 1.234375 -11.59375 C 1.191406 -11.769531 1.171875 -11.867188 1.171875 -11.890625 L 8.3125 -11.890625 L 8.3125 -10.765625 L 2.921875 -10.765625 L 2.921875 -6.671875 L 7.109375 -6.671875 L 7.109375 -5.5625 L 2.921875 -5.5625 L 2.921875 -1.125 L 8.3125 -1.125 Z M 8.3125 0 "/></g></g></g><g fill="#183e9f" fill-opacity="1"><g transform="translate(216.843095, 223.344497)"><g><path d="M 10.03125 0 L 8.359375 0 L 6.984375 -4.09375 L 3.0625 -4.09375 L 1.671875 0 L 0.296875 0 L 4.421875 -11.890625 L 5.921875 -11.890625 Z M 6.609375 -5.203125 L 5.03125 -9.90625 L 3.4375 -5.203125 Z M 6.609375 -5.203125 "/></g></g></g><g fill="#183e9f" fill-opacity="1"><g transform="translate(227.152592, 223.344497)"><g><path d="M 7.921875 0 L 1.40625 0 L 1.40625 -10.8125 C 1.40625 -10.832031 1.382812 -10.921875 1.34375 -11.078125 C 1.3125 -11.242188 1.273438 -11.414062 1.234375 -11.59375 C 1.191406 -11.769531 1.171875 -11.867188 1.171875 -11.890625 L 2.921875 -11.890625 L 2.921875 -1.125 L 7.921875 -1.125 Z M 7.921875 0 "/></g></g></g><g fill="#183e9f" fill-opacity="1"><g transform="translate(235.550493, 223.344497)"><g><path d="M 5.46875 0 L 3.921875 0 L 3.921875 -10.765625 L 0.390625 -10.765625 L 0.390625 -11.890625 L 9.046875 -11.890625 L 9.046875 -10.765625 L 5.46875 -10.765625 Z M 5.46875 0 "/></g></g></g><g fill="#183e9f" fill-opacity="1"><g transform="translate(244.994047, 223.344497)"><g><path d="M 10.25 0 L 8.734375 0 L 8.734375 -5.625 L 2.9375 -5.625 L 2.9375 0 L 1.421875 0 L 1.421875 -10.8125 C 1.421875 -10.832031 1.398438 -10.921875 1.359375 -11.078125 C 1.328125 -11.242188 1.289062 -11.414062 1.25 -11.59375 C 1.207031 -11.769531 1.1875 -11.867188 1.1875 -11.890625 L 2.9375 -11.890625 L 2.9375 -6.734375 L 8.734375 -6.734375 L 8.734375 -11.890625 L 10.25 -11.890625 Z M 10.25 0 "/></g></g></g><g fill="#183e9f" fill-opacity="1"><g transform="translate(256.659618, 223.344497)"><g/></g></g><g fill="#183e9f" fill-opacity="1"><g transform="translate(260.417431, 223.344497)"><g><path d="M 9.21875 -2.046875 L 9.921875 -0.953125 C 9.484375 -0.585938 8.921875 -0.300781 8.234375 -0.09375 C 7.554688 0.101562 6.910156 0.203125 6.296875 0.203125 C 4.566406 0.203125 3.207031 -0.390625 2.21875 -1.578125 C 1.238281 -2.765625 0.75 -4.234375 0.75 -5.984375 C 0.75 -7.742188 1.242188 -9.195312 2.234375 -10.34375 C 3.222656 -11.488281 4.585938 -12.0625 6.328125 -12.0625 C 6.972656 -12.0625 7.632812 -11.945312 8.3125 -11.71875 C 8.988281 -11.5 9.515625 -11.179688 9.890625 -10.765625 L 9.03125 -9.828125 C 8.726562 -10.160156 8.316406 -10.425781 7.796875 -10.625 C 7.273438 -10.820312 6.773438 -10.921875 6.296875 -10.921875 C 5.617188 -10.921875 5.023438 -10.773438 4.515625 -10.484375 C 4.003906 -10.191406 3.597656 -9.796875 3.296875 -9.296875 C 3.003906 -8.804688 2.785156 -8.273438 2.640625 -7.703125 C 2.492188 -7.128906 2.421875 -6.523438 2.421875 -5.890625 C 2.421875 -5.234375 2.492188 -4.617188 2.640625 -4.046875 C 2.785156 -3.484375 3.007812 -2.972656 3.3125 -2.515625 C 3.613281 -2.054688 4.019531 -1.691406 4.53125 -1.421875 C 5.050781 -1.160156 5.648438 -1.03125 6.328125 -1.03125 C 6.816406 -1.03125 7.328125 -1.117188 7.859375 -1.296875 C 8.398438 -1.484375 8.851562 -1.734375 9.21875 -2.046875 Z M 9.21875 -2.046875 "/></g></g></g><g fill="#183e9f" fill-opacity="1"><g transform="translate(270.612561, 223.344497)"><g><path d="M 10.03125 0 L 8.359375 0 L 6.984375 -4.09375 L 3.0625 -4.09375 L 1.671875 0 L 0.296875 0 L 4.421875 -11.890625 L 5.921875 -11.890625 Z M 6.609375 -5.203125 L 5.03125 -9.90625 L 3.4375 -5.203125 Z M 6.609375 -5.203125 "/></g></g></g><g fill="#183e9f" fill-opacity="1"><g transform="translate(280.922058, 223.344497)"><g><path d="M 9.796875 0 L 8.03125 0 L 4.953125 -5.375 C 4.703125 -5.351562 4.289062 -5.34375 3.71875 -5.34375 L 2.90625 -5.34375 L 2.90625 0 L 1.390625 0 L 1.390625 -10.8125 C 1.390625 -10.832031 1.367188 -10.921875 1.328125 -11.078125 C 1.296875 -11.242188 1.257812 -11.414062 1.21875 -11.59375 C 1.175781 -11.769531 1.15625 -11.867188 1.15625 -11.890625 L 4.703125 -11.890625 C 7.390625 -11.890625 8.734375 -10.796875 8.734375 -8.609375 C 8.734375 -7.953125 8.507812 -7.34375 8.0625 -6.78125 C 7.625 -6.226562 7.085938 -5.851562 6.453125 -5.65625 Z M 2.90625 -6.453125 L 4.21875 -6.453125 C 5.125 -6.453125 5.835938 -6.617188 6.359375 -6.953125 C 6.878906 -7.285156 7.140625 -7.875 7.140625 -8.71875 C 7.140625 -9.375 6.90625 -9.878906 6.4375 -10.234375 C 5.96875 -10.585938 5.390625 -10.765625 4.703125 -10.765625 L 2.90625 -10.765625 Z M 2.90625 -6.453125 "/></g></g></g><g fill="#183e9f" fill-opacity="1"><g transform="translate(290.578018, 223.344497)"><g><path d="M 8.3125 0 L 1.40625 0 L 1.40625 -10.8125 C 1.40625 -10.832031 1.382812 -10.921875 1.34375 -11.078125 C 1.3125 -11.242188 1.273438 -11.414062 1.234375 -11.59375 C 1.191406 -11.769531 1.171875 -11.867188 1.171875 -11.890625 L 8.3125 -11.890625 L 8.3125 -10.765625 L 2.921875 -10.765625 L 2.921875 -6.671875 L 7.109375 -6.671875 L 7.109375 -5.5625 L 2.921875 -5.5625 L 2.921875 -1.125 L 8.3125 -1.125 Z M 8.3125 0 "/></g></g></g><path fill="#3f4446" d="M 50.976562 235.300781 C 44.613281 209.570312 71.652344 183.402344 92.164062 171.46875 C 70.273438 180.402344 19.289062 208.425781 50.976562 235.300781 Z M 50.976562 235.300781 " fill-opacity="1" fill-rule="evenodd"/><path fill="#3f4446" d="M 40.042969 210.890625 C 35.9375 201.8125 28.351562 194.535156 18.167969 188.574219 C 28 192.707031 36.648438 197.617188 43.34375 203.835938 C 41.898438 206.132812 40.773438 208.484375 40.042969 210.890625 Z M 40.042969 210.890625 " fill-opacity="1" fill-rule="evenodd"/><path fill="#3f4446" d="M 49.824219 190.21875 C 49.882812 190.585938 49.90625 190.960938 49.894531 191.335938 C 49.878906 191.710938 49.828125 192.078125 49.742188 192.445312 C 49.65625 192.808594 49.535156 193.164062 49.378906 193.503906 C 49.222656 193.84375 49.035156 194.167969 48.816406 194.472656 C 48.59375 194.777344 48.347656 195.054688 48.070312 195.3125 C 47.796875 195.566406 47.5 195.792969 47.179688 195.988281 C 46.859375 196.1875 46.523438 196.351562 46.167969 196.480469 C 45.816406 196.613281 45.457031 196.707031 45.082031 196.769531 C 44.710938 196.828125 44.339844 196.851562 43.960938 196.839844 C 43.585938 196.824219 43.214844 196.777344 42.847656 196.691406 C 42.484375 196.605469 42.128906 196.484375 41.785156 196.328125 C 41.445312 196.171875 41.121094 195.984375 40.816406 195.765625 C 40.511719 195.546875 40.230469 195.296875 39.972656 195.023438 C 39.71875 194.75 39.488281 194.453125 39.292969 194.132812 C 39.09375 193.816406 38.929688 193.480469 38.796875 193.128906 C 38.667969 192.777344 38.570312 192.417969 38.511719 192.046875 C 38.449219 191.675781 38.425781 191.304688 38.441406 190.929688 C 38.453125 190.554688 38.503906 190.183594 38.589844 189.820312 C 38.675781 189.453125 38.796875 189.101562 38.953125 188.761719 C 39.109375 188.417969 39.296875 188.097656 39.519531 187.792969 C 39.738281 187.488281 39.984375 187.207031 40.261719 186.953125 C 40.535156 186.695312 40.835938 186.472656 41.15625 186.273438 C 41.472656 186.078125 41.8125 185.914062 42.164062 185.78125 C 42.515625 185.648438 42.878906 185.554688 43.25 185.496094 C 43.621094 185.433594 43.996094 185.410156 44.371094 185.425781 C 44.746094 185.4375 45.117188 185.488281 45.484375 185.574219 C 45.847656 185.660156 46.203125 185.78125 46.546875 185.9375 C 46.886719 186.09375 47.210938 186.28125 47.515625 186.5 C 47.824219 186.71875 48.101562 186.964844 48.359375 187.238281 C 48.617188 187.515625 48.84375 187.8125 49.039062 188.128906 C 49.238281 188.449219 49.402344 188.785156 49.535156 189.136719 C 49.667969 189.488281 49.761719 189.847656 49.824219 190.21875 Z M 49.824219 190.21875 " fill-opacity="1" fill-rule="nonzero"/><path fill="#67bc45" d="M 76.335938 235.300781 C 79.777344 221.378906 73.441406 207.332031 63.65625 195.476562 C 65.160156 193.65625 66.742188 191.886719 68.386719 190.175781 C 84.667969 202.746094 95.289062 219.226562 76.335938 235.300781 Z M 58.925781 190.183594 C 60.460938 188.996094 62.042969 187.847656 63.65625 186.738281 C 53.753906 179.925781 42.714844 174.558594 35.144531 171.476562 C 42.859375 175.957031 51.496094 182.453125 58.925781 190.183594 Z M 58.925781 190.183594 " fill-opacity="1" fill-rule="evenodd"/><path fill="#67bc45" d="M 87.277344 210.890625 C 91.378906 201.820312 98.96875 194.535156 109.152344 188.582031 C 99.320312 192.710938 90.667969 197.625 83.976562 203.84375 C 85.414062 206.132812 86.546875 208.484375 87.277344 210.890625 Z M 87.277344 210.890625 " fill-opacity="1" fill-rule="evenodd"/><path fill="#67bc45" d="M 84.472656 185.578125 C 84.839844 185.664062 85.191406 185.785156 85.535156 185.941406 C 85.878906 186.097656 86.203125 186.285156 86.507812 186.503906 C 86.8125 186.722656 87.09375 186.972656 87.347656 187.246094 C 87.605469 187.519531 87.832031 187.816406 88.03125 188.136719 C 88.226562 188.453125 88.394531 188.789062 88.523438 189.140625 C 88.65625 189.492188 88.75 189.851562 88.8125 190.222656 C 88.871094 190.59375 88.894531 190.964844 88.882812 191.339844 C 88.867188 191.714844 88.820312 192.085938 88.730469 192.449219 C 88.644531 192.816406 88.523438 193.167969 88.367188 193.507812 C 88.210938 193.851562 88.023438 194.171875 87.804688 194.476562 C 87.582031 194.78125 87.335938 195.0625 87.0625 195.316406 C 86.785156 195.570312 86.488281 195.796875 86.167969 195.996094 C 85.847656 196.191406 85.511719 196.355469 85.160156 196.488281 C 84.808594 196.617188 84.445312 196.714844 84.074219 196.773438 C 83.703125 196.835938 83.328125 196.859375 82.953125 196.84375 C 82.578125 196.832031 82.207031 196.78125 81.839844 196.695312 C 81.472656 196.609375 81.117188 196.488281 80.777344 196.332031 C 80.433594 196.175781 80.109375 195.988281 79.804688 195.769531 C 79.5 195.550781 79.21875 195.304688 78.960938 195.03125 C 78.707031 194.753906 78.480469 194.457031 78.28125 194.140625 C 78.082031 193.820312 77.917969 193.484375 77.789062 193.132812 C 77.65625 192.78125 77.558594 192.421875 77.5 192.050781 C 77.441406 191.679688 77.417969 191.308594 77.429688 190.933594 C 77.441406 190.558594 77.492188 190.191406 77.578125 189.824219 C 77.664062 189.460938 77.789062 189.105469 77.945312 188.765625 C 78.101562 188.425781 78.289062 188.101562 78.507812 187.796875 C 78.726562 187.492188 78.976562 187.214844 79.25 186.957031 C 79.527344 186.703125 79.824219 186.476562 80.144531 186.277344 C 80.464844 186.082031 80.800781 185.917969 81.152344 185.785156 C 81.503906 185.65625 81.867188 185.558594 82.238281 185.5 C 82.609375 185.441406 82.984375 185.417969 83.359375 185.429688 C 83.734375 185.445312 84.105469 185.492188 84.472656 185.578125 Z M 84.472656 185.578125 " fill-opacity="1" fill-rule="nonzero"/><g clip-path="url(#49efa1c898)"><path fill="#3f4446" d="M 64.648438 249.265625 C 92.167969 249.265625 114.476562 240.140625 114.476562 228.886719 C 114.476562 222.257812 106.746094 216.375 94.769531 212.652344 C 104.609375 216.140625 110.835938 221.304688 110.835938 227.066406 C 110.835938 237.566406 90.15625 246.078125 64.648438 246.078125 C 39.140625 246.078125 18.464844 237.566406 18.464844 227.066406 C 18.464844 221.308594 24.691406 216.140625 34.527344 212.660156 C 22.554688 216.375 14.824219 222.257812 14.824219 228.886719 C 14.824219 240.140625 37.132812 249.265625 64.648438 249.265625 Z M 64.648438 249.265625 " fill-opacity="1" fill-rule="evenodd"/></g><path fill="#3f4446" d="M 70.507812 170.445312 C 70.582031 170.890625 70.609375 171.339844 70.59375 171.789062 C 70.578125 172.238281 70.515625 172.683594 70.414062 173.125 C 70.308594 173.5625 70.164062 173.984375 69.976562 174.394531 C 69.789062 174.804688 69.5625 175.195312 69.296875 175.558594 C 69.03125 175.925781 68.734375 176.261719 68.402344 176.570312 C 68.074219 176.875 67.714844 177.148438 67.332031 177.386719 C 66.945312 177.621094 66.542969 177.820312 66.117188 177.976562 C 65.695312 178.132812 65.257812 178.25 64.8125 178.320312 C 64.367188 178.394531 63.917969 178.421875 63.464844 178.40625 C 63.011719 178.390625 62.566406 178.328125 62.125 178.226562 C 61.6875 178.121094 61.261719 177.976562 60.847656 177.789062 C 60.4375 177.601562 60.046875 177.378906 59.683594 177.113281 C 59.316406 176.851562 58.976562 176.554688 58.667969 176.222656 C 58.359375 175.894531 58.089844 175.539062 57.851562 175.152344 C 57.613281 174.769531 57.414062 174.367188 57.257812 173.945312 C 57.097656 173.523438 56.984375 173.089844 56.910156 172.644531 C 56.839844 172.199219 56.808594 171.75 56.828125 171.300781 C 56.84375 170.851562 56.902344 170.40625 57.007812 169.96875 C 57.109375 169.527344 57.257812 169.105469 57.445312 168.695312 C 57.632812 168.285156 57.859375 167.898438 58.121094 167.53125 C 58.386719 167.164062 58.683594 166.828125 59.015625 166.523438 C 59.347656 166.214844 59.703125 165.941406 60.089844 165.707031 C 60.472656 165.46875 60.878906 165.269531 61.300781 165.113281 C 61.726562 164.957031 62.160156 164.839844 62.605469 164.769531 C 63.054688 164.695312 63.503906 164.667969 63.953125 164.683594 C 64.40625 164.699219 64.851562 164.761719 65.292969 164.863281 C 65.734375 164.96875 66.160156 165.113281 66.570312 165.300781 C 66.980469 165.488281 67.371094 165.714844 67.738281 165.976562 C 68.105469 166.242188 68.441406 166.539062 68.75 166.867188 C 69.058594 167.195312 69.332031 167.554688 69.570312 167.9375 C 69.808594 168.320312 70.003906 168.722656 70.164062 169.144531 C 70.320312 169.566406 70.4375 170 70.507812 170.445312 Z M 70.507812 170.445312 " fill-opacity="1" fill-rule="nonzero"/><g clip-path="url(#44c7dc10be)"><path fill="#3f4446" d="M 83.09375 123.113281 C 83.195312 123.433594 83.019531 123.667969 82.921875 123.910156 C 81.851562 126.457031 80.527344 128.882812 79.3125 131.359375 C 77.269531 135.527344 75.160156 139.65625 73.429688 143.96875 C 72.402344 146.527344 71.253906 149.042969 70.207031 151.59375 C 70.125 151.796875 70.050781 152.191406 69.804688 152.082031 C 69.507812 151.941406 69.789062 151.636719 69.875 151.425781 C 71.183594 148.246094 72.472656 145.0625 73.820312 141.898438 C 75.1875 138.6875 76.832031 135.605469 78.359375 132.472656 C 79.824219 129.472656 81.3125 126.488281 82.789062 123.496094 C 82.855469 123.367188 82.882812 123.203125 83.09375 123.113281 Z M 45.4375 123.398438 C 45.683594 124.242188 45.929688 125.085938 46.269531 125.898438 C 47.46875 128.773438 48.800781 131.601562 49.769531 134.558594 C 51.714844 140.496094 54.230469 146.21875 56.3125 152.105469 C 56.375 152.285156 56.390625 152.644531 56.683594 152.535156 C 56.941406 152.4375 56.707031 152.179688 56.65625 152.007812 C 56.175781 150.398438 55.546875 148.84375 54.933594 147.289062 C 51.800781 139.359375 48.882812 131.34375 45.78125 123.402344 C 45.71875 123.238281 45.695312 123.03125 45.433594 122.972656 C 45.355469 123.136719 45.398438 123.265625 45.4375 123.398438 Z M 81.042969 161.347656 C 83.488281 160.230469 85.929688 159.097656 88.371094 157.964844 C 92.117188 156.226562 95.824219 154.40625 99.59375 152.710938 C 102.492188 151.40625 105.449219 150.214844 108.234375 148.667969 C 108.4375 148.550781 108.707031 148.503906 108.863281 148.117188 C 99.113281 152.457031 89.628906 157.085938 80.0625 161.535156 C 80.4375 161.648438 80.742188 161.484375 81.042969 161.347656 Z M 83.09375 168.25 C 86.449219 168.148438 89.804688 168.359375 93.160156 168.238281 C 95.566406 168.152344 97.972656 168.3125 100.378906 168.355469 C 103.378906 168.40625 106.375 168.234375 109.371094 168.121094 C 110.59375 168.074219 111.8125 168.039062 113.03125 167.996094 C 113.164062 167.988281 113.355469 167.988281 113.351562 167.824219 C 113.34375 167.625 113.140625 167.707031 113.023438 167.710938 C 112.328125 167.730469 111.636719 167.769531 110.941406 167.796875 C 105.0625 168.023438 99.179688 167.828125 93.300781 168.015625 C 89.660156 168.132812 86.015625 167.78125 82.371094 167.953125 C 82.164062 167.960938 81.9375 167.898438 81.730469 168.128906 C 82.199219 168.273438 82.648438 168.265625 83.09375 168.25 Z M 44.800781 167.832031 C 44.109375 167.8125 43.414062 167.804688 42.71875 167.789062 C 39.835938 167.71875 36.964844 168.046875 34.085938 168.007812 C 31.425781 167.96875 28.769531 167.863281 26.109375 167.828125 C 22.160156 167.773438 18.214844 167.851562 14.269531 167.910156 C 14.109375 167.910156 13.859375 167.851562 13.847656 168.074219 C 13.839844 168.335938 14.101562 168.226562 14.242188 168.226562 C 16.140625 168.242188 18.039062 168.261719 19.9375 168.246094 C 26.761719 168.179688 33.589844 168.28125 40.417969 168.125 C 41.824219 168.09375 43.230469 168.125 44.636719 168.113281 C 44.84375 168.113281 45.082031 168.179688 45.257812 167.980469 C 45.144531 167.800781 44.960938 167.839844 44.800781 167.832031 Z M 19.394531 148.378906 C 22.769531 149.957031 26.148438 151.523438 29.390625 153.375 C 33.820312 155.90625 38.535156 157.878906 43.023438 160.304688 C 44.199219 160.9375 45.441406 161.449219 46.65625 162.007812 C 46.757812 162.050781 46.910156 162.214844 46.992188 162.007812 C 47.046875 161.871094 46.878906 161.824219 46.78125 161.773438 C 46.449219 161.597656 46.125 161.417969 45.789062 161.253906 C 42.964844 159.859375 40.117188 158.503906 37.3125 157.074219 C 31.277344 153.992188 25.238281 150.921875 19.164062 147.921875 C 19.019531 147.847656 18.882812 147.710938 18.636719 147.839844 C 18.832031 148.148438 19.125 148.253906 19.394531 148.378906 Z M 63.722656 129.402344 C 63.691406 131.621094 63.652344 133.839844 63.632812 136.058594 C 63.589844 140.972656 63.523438 145.890625 63.609375 150.804688 C 63.613281 151.019531 63.527344 151.378906 63.847656 151.371094 C 64.132812 151.359375 64.007812 151.011719 64.015625 150.8125 C 64.144531 147.207031 63.867188 143.601562 63.980469 139.988281 C 64.089844 136.582031 64.011719 133.175781 64.007812 129.765625 C 64.007812 129.558594 64.070312 129.324219 63.863281 129.121094 C 63.726562 129.199219 63.722656 129.296875 63.722656 129.402344 Z M 91.886719 140.355469 C 91.769531 140.414062 91.660156 140.5 91.566406 140.589844 C 90.226562 141.863281 88.90625 143.152344 87.554688 144.410156 C 85.980469 145.875 84.363281 147.296875 82.804688 148.773438 C 80.589844 150.871094 78.449219 153.039062 76.34375 155.246094 C 76.203125 155.390625 76.070312 155.546875 75.945312 155.703125 C 75.878906 155.785156 75.832031 155.894531 75.914062 155.980469 C 76.023438 156.09375 76.132812 156.019531 76.222656 155.933594 C 76.460938 155.695312 76.695312 155.449219 76.9375 155.210938 C 78.210938 153.945312 79.546875 152.738281 80.746094 151.40625 C 82.460938 149.5 84.289062 147.71875 86.238281 146.058594 C 88.136719 144.445312 89.886719 142.671875 91.675781 140.941406 C 91.820312 140.800781 91.945312 140.640625 92.058594 140.507812 C 92.050781 140.355469 91.964844 140.3125 91.886719 140.355469 Z M 35.882812 139.882812 C 35.976562 140.152344 36.191406 140.324219 36.382812 140.511719 C 40.496094 144.570312 44.390625 148.84375 48.5 152.902344 C 49.417969 153.808594 50.285156 154.757812 51.152344 155.714844 C 51.246094 155.820312 51.371094 155.984375 51.53125 155.839844 C 51.691406 155.695312 51.535156 155.566406 51.4375 155.457031 C 51.070312 155.054688 50.710938 154.652344 50.335938 154.261719 C 47.898438 151.710938 45.34375 149.28125 42.882812 146.761719 C 40.9375 144.777344 39.109375 142.679688 37.078125 140.78125 C 36.714844 140.441406 36.351562 140.109375 35.984375 139.773438 C 35.953125 139.808594 35.917969 139.847656 35.882812 139.882812 Z M 54.101562 153.777344 C 54.058594 153.382812 53.8125 153.074219 53.605469 152.757812 C 51.929688 150.171875 50.277344 147.570312 48.507812 145.042969 C 48.140625 144.515625 47.777344 143.980469 47.40625 143.457031 C 47.34375 143.367188 47.25 143.242188 47.117188 143.339844 C 47.011719 143.421875 47.105469 143.527344 47.148438 143.613281 C 47.1875 143.6875 47.234375 143.757812 47.28125 143.828125 C 49.128906 146.546875 51.074219 149.199219 52.710938 152.054688 C 53.074219 152.6875 53.546875 153.261719 53.96875 153.859375 C 54.011719 153.832031 54.058594 153.804688 54.101562 153.777344 Z M 60.554688 151.390625 C 60.554688 150.859375 60.347656 150.367188 60.25 149.851562 C 59.605469 146.449219 58.964844 143.039062 58.316406 139.636719 C 58.273438 139.402344 58.277344 138.96875 58.035156 139.019531 C 57.734375 139.082031 57.902344 139.476562 57.953125 139.71875 C 58.597656 142.832031 59.371094 145.917969 59.761719 149.078125 C 59.867188 149.945312 60.121094 150.789062 60.382812 151.648438 C 60.570312 151.5625 60.554688 151.46875 60.554688 151.390625 Z M 48.777344 157.878906 C 48.265625 157.402344 47.679688 157.027344 47.109375 156.628906 C 45.214844 155.320312 43.316406 154.015625 41.503906 152.59375 C 40.929688 152.144531 40.320312 151.742188 39.722656 151.328125 C 39.605469 151.246094 39.425781 151.136719 39.328125 151.320312 C 39.246094 151.464844 39.417969 151.554688 39.523438 151.632812 C 39.867188 151.878906 40.210938 152.125 40.5625 152.359375 C 41.167969 152.769531 41.785156 153.152344 42.378906 153.574219 C 44.449219 155.046875 46.398438 156.683594 48.519531 158.089844 C 48.6875 158.199219 48.824219 158.425781 49.101562 158.316406 C 49.070312 158.105469 48.90625 158 48.777344 157.878906 Z M 45.746094 164.691406 C 45.671875 164.652344 45.601562 164.59375 45.527344 164.578125 C 43.941406 164.3125 42.417969 163.789062 40.839844 163.484375 C 38.949219 163.121094 37.128906 162.460938 35.242188 162.066406 C 34.910156 161.996094 34.554688 161.828125 34.167969 162.007812 C 34.347656 162.257812 34.59375 162.273438 34.816406 162.328125 C 36.320312 162.714844 37.835938 163.058594 39.351562 163.394531 C 40.902344 163.734375 42.417969 164.210938 43.957031 164.59375 C 44.535156 164.738281 45.125 164.867188 45.722656 164.816406 C 45.730469 164.773438 45.738281 164.730469 45.746094 164.691406 Z M 78.882812 158.664062 C 79.351562 158.332031 79.808594 157.980469 80.273438 157.648438 C 82.515625 156.039062 84.757812 154.4375 86.996094 152.828125 C 87.253906 152.640625 87.488281 152.417969 87.726562 152.199219 C 87.804688 152.128906 87.941406 152.039062 87.820312 151.910156 C 87.734375 151.820312 87.628906 151.914062 87.550781 151.96875 C 87.160156 152.238281 86.777344 152.515625 86.386719 152.785156 C 85.0625 153.695312 83.917969 154.839844 82.546875 155.691406 C 81.265625 156.488281 80.039062 157.359375 78.851562 158.289062 C 78.671875 158.429688 78.449219 158.546875 78.390625 158.832031 C 78.636719 158.90625 78.75 158.753906 78.882812 158.664062 Z M 74.09375 152.738281 C 75.355469 150.691406 76.628906 148.65625 78.0625 146.726562 C 78.609375 145.992188 79.09375 145.21875 79.546875 144.421875 C 79.628906 144.28125 79.773438 144.070312 79.609375 143.96875 C 79.425781 143.855469 79.332031 144.097656 79.25 144.230469 C 77.503906 147.132812 75.523438 149.878906 73.703125 152.730469 C 73.480469 153.074219 73.210938 153.398438 73.140625 153.832031 C 73.589844 153.570312 73.839844 153.148438 74.09375 152.738281 Z M 67.015625 151.480469 C 67.0625 151.304688 67.121094 151.132812 67.152344 150.953125 C 67.8125 147.570312 68.402344 144.171875 69.195312 140.816406 C 69.273438 140.46875 69.324219 140.117188 69.378906 139.765625 C 69.398438 139.636719 69.40625 139.457031 69.234375 139.4375 C 69.058594 139.417969 69.046875 139.601562 69.003906 139.722656 C 68.984375 139.785156 68.984375 139.855469 68.976562 139.925781 C 68.511719 143.035156 67.8125 146.101562 67.199219 149.183594 C 67.050781 149.929688 66.902344 150.691406 66.882812 151.460938 C 66.929688 151.46875 66.972656 151.472656 67.015625 151.480469 Z M 92.484375 162.398438 C 88.796875 163.175781 85.105469 163.933594 81.46875 164.945312 C 82.226562 165.058594 92.253906 162.730469 92.484375 162.398438 Z M 32.890625 161.765625 C 32.941406 161.769531 33.027344 161.714844 33.046875 161.667969 C 33.089844 161.570312 33.003906 161.511719 32.925781 161.488281 C 32.339844 161.328125 31.761719 161.097656 31.128906 161.167969 C 31.675781 161.496094 32.261719 161.695312 32.890625 161.765625 Z M 45.476562 140.890625 C 45.433594 140.882812 45.351562 140.886719 45.34375 140.90625 C 45.328125 140.960938 45.3125 141.039062 45.335938 141.089844 C 45.566406 141.523438 45.851562 141.921875 46.175781 142.296875 C 46.234375 142.363281 46.316406 142.398438 46.398438 142.355469 C 46.433594 142.339844 46.445312 142.277344 46.457031 142.257812 C 46.457031 142.058594 45.640625 140.933594 45.476562 140.890625 Z M 88.921875 150.894531 C 88.839844 150.957031 88.785156 151.066406 88.851562 151.160156 C 88.925781 151.269531 89.035156 151.207031 89.121094 151.15625 C 89.550781 150.894531 89.933594 150.578125 90.203125 150.132812 C 89.710938 150.292969 89.308594 150.582031 88.921875 150.894531 Z M 57.660156 137.609375 C 57.683594 137.699219 57.714844 137.816406 57.847656 137.800781 C 57.945312 137.789062 57.988281 137.703125 57.96875 137.613281 C 57.84375 137.070312 57.820312 136.496094 57.4375 136.03125 C 57.394531 136.578125 57.539062 137.089844 57.660156 137.609375 Z M 69.882812 136.691406 C 69.886719 136.640625 69.835938 136.554688 69.792969 136.53125 C 69.691406 136.484375 69.636719 136.578125 69.617188 136.65625 C 69.496094 137.148438 69.3125 137.640625 69.492188 138.167969 C 69.824219 137.722656 69.808594 137.195312 69.882812 136.691406 Z M 81.359375 141.355469 C 80.972656 141.855469 80.464844 142.273438 80.34375 142.941406 C 80.773438 142.472656 81.21875 142.011719 81.359375 141.355469 Z M 36.402344 149.382812 C 36.75 149.875 37.25 150.15625 37.808594 150.359375 C 37.445312 149.890625 37.007812 149.515625 36.402344 149.382812 Z M 93.757812 162.164062 C 94.308594 162.070312 94.898438 162.105469 95.347656 161.671875 C 94.789062 161.761719 94.195312 161.714844 93.757812 162.164062 Z M 93.757812 162.164062 " fill-opacity="1" fill-rule="nonzero"/><path fill="#3f4446" d="M 83.09375 123.113281 C 83.195312 123.433594 83.019531 123.667969 82.921875 123.910156 C 81.851562 126.457031 80.527344 128.882812 79.3125 131.359375 C 77.269531 135.527344 75.160156 139.65625 73.429688 143.96875 C 72.402344 146.527344 71.253906 149.042969 70.207031 151.59375 C 70.125 151.796875 70.050781 152.191406 69.804688 152.082031 C 69.507812 151.941406 69.789062 151.636719 69.875 151.425781 C 71.183594 148.246094 72.472656 145.0625 73.820312 141.898438 C 75.1875 138.6875 76.832031 135.605469 78.359375 132.472656 C 79.824219 129.472656 81.3125 126.488281 82.789062 123.496094 C 82.855469 123.367188 82.882812 123.203125 83.09375 123.113281 Z M 45.4375 123.398438 C 45.683594 124.242188 45.929688 125.085938 46.269531 125.898438 C 47.46875 128.773438 48.800781 131.601562 49.769531 134.558594 C 51.714844 140.496094 54.230469 146.21875 56.3125 152.105469 C 56.375 152.285156 56.390625 152.644531 56.683594 152.535156 C 56.941406 152.4375 56.707031 152.179688 56.65625 152.007812 C 56.175781 150.398438 55.546875 148.84375 54.933594 147.289062 C 51.800781 139.359375 48.882812 131.34375 45.78125 123.402344 C 45.71875 123.238281 45.695312 123.03125 45.433594 122.972656 C 45.355469 123.136719 45.398438 123.265625 45.4375 123.398438 Z M 81.042969 161.347656 C 83.488281 160.230469 85.929688 159.097656 88.371094 157.964844 C 92.117188 156.226562 95.824219 154.40625 99.59375 152.710938 C 102.492188 151.40625 105.449219 150.214844 108.234375 148.667969 C 108.4375 148.550781 108.707031 148.503906 108.863281 148.117188 C 99.113281 152.457031 89.628906 157.085938 80.0625 161.535156 C 80.4375 161.648438 80.742188 161.484375 81.042969 161.347656 Z M 83.09375 168.25 C 86.449219 168.148438 89.804688 168.359375 93.160156 168.238281 C 95.566406 168.152344 97.972656 168.3125 100.378906 168.355469 C 103.378906 168.40625 106.375 168.234375 109.371094 168.121094 C 110.59375 168.074219 111.8125 168.039062 113.03125 167.996094 C 113.164062 167.988281 113.355469 167.988281 113.351562 167.824219 C 113.34375 167.625 113.140625 167.707031 113.023438 167.710938 C 112.328125 167.730469 111.636719 167.769531 110.941406 167.796875 C 105.0625 168.023438 99.179688 167.828125 93.300781 168.015625 C 89.660156 168.132812 86.015625 167.78125 82.371094 167.953125 C 82.164062 167.960938 81.9375 167.898438 81.730469 168.128906 C 82.199219 168.273438 82.648438 168.265625 83.09375 168.25 Z M 44.800781 167.832031 C 44.109375 167.8125 43.414062 167.804688 42.71875 167.789062 C 39.835938 167.71875 36.964844 168.046875 34.085938 168.007812 C 31.425781 167.96875 28.769531 167.863281 26.109375 167.828125 C 22.160156 167.773438 18.214844 167.851562 14.269531 167.910156 C 14.109375 167.910156 13.859375 167.851562 13.847656 168.074219 C 13.839844 168.335938 14.101562 168.226562 14.242188 168.226562 C 16.140625 168.242188 18.039062 168.261719 19.9375 168.246094 C 26.761719 168.179688 33.589844 168.28125 40.417969 168.125 C 41.824219 168.09375 43.230469 168.125 44.636719 168.113281 C 44.84375 168.113281 45.082031 168.179688 45.257812 167.980469 C 45.144531 167.800781 44.960938 167.839844 44.800781 167.832031 Z M 19.394531 148.378906 C 22.769531 149.957031 26.148438 151.523438 29.390625 153.375 C 33.820312 155.90625 38.535156 157.878906 43.023438 160.304688 C 44.199219 160.9375 45.441406 161.449219 46.65625 162.007812 C 46.757812 162.050781 46.910156 162.214844 46.992188 162.007812 C 47.046875 161.871094 46.878906 161.824219 46.78125 161.773438 C 46.449219 161.597656 46.125 161.417969 45.789062 161.253906 C 42.964844 159.859375 40.117188 158.503906 37.3125 157.074219 C 31.277344 153.992188 25.238281 150.921875 19.164062 147.921875 C 19.019531 147.847656 18.882812 147.710938 18.636719 147.839844 C 18.832031 148.148438 19.125 148.253906 19.394531 148.378906 Z M 63.722656 129.402344 C 63.691406 131.621094 63.652344 133.839844 63.632812 136.058594 C 63.589844 140.972656 63.523438 145.890625 63.609375 150.804688 C 63.613281 151.019531 63.527344 151.378906 63.847656 151.371094 C 64.132812 151.359375 64.007812 151.011719 64.015625 150.8125 C 64.144531 147.207031 63.867188 143.601562 63.980469 139.988281 C 64.089844 136.582031 64.011719 133.175781 64.007812 129.765625 C 64.007812 129.558594 64.070312 129.324219 63.863281 129.121094 C 63.726562 129.199219 63.722656 129.296875 63.722656 129.402344 Z M 91.886719 140.355469 C 91.769531 140.414062 91.660156 140.5 91.566406 140.589844 C 90.226562 141.863281 88.90625 143.152344 87.554688 144.410156 C 85.980469 145.875 84.363281 147.296875 82.804688 148.773438 C 80.589844 150.871094 78.449219 153.039062 76.34375 155.246094 C 76.203125 155.390625 76.070312 155.546875 75.945312 155.703125 C 75.878906 155.785156 75.832031 155.894531 75.914062 155.980469 C 76.023438 156.09375 76.132812 156.019531 76.222656 155.933594 C 76.460938 155.695312 76.695312 155.449219 76.9375 155.210938 C 78.210938 153.945312 79.546875 152.738281 80.746094 151.40625 C 82.460938 149.5 84.289062 147.71875 86.238281 146.058594 C 88.136719 144.445312 89.886719 142.671875 91.675781 140.941406 C 91.820312 140.800781 91.945312 140.640625 92.058594 140.507812 C 92.050781 140.355469 91.964844 140.3125 91.886719 140.355469 Z M 35.882812 139.882812 C 35.976562 140.152344 36.191406 140.324219 36.382812 140.511719 C 40.496094 144.570312 44.390625 148.84375 48.5 152.902344 C 49.417969 153.808594 50.285156 154.757812 51.152344 155.714844 C 51.246094 155.820312 51.371094 155.984375 51.53125 155.839844 C 51.691406 155.695312 51.535156 155.566406 51.4375 155.457031 C 51.070312 155.054688 50.710938 154.652344 50.335938 154.261719 C 47.898438 151.710938 45.34375 149.28125 42.882812 146.761719 C 40.9375 144.777344 39.109375 142.679688 37.078125 140.78125 C 36.714844 140.441406 36.351562 140.109375 35.984375 139.773438 C 35.953125 139.808594 35.917969 139.847656 35.882812 139.882812 Z M 54.101562 153.777344 C 54.058594 153.382812 53.8125 153.074219 53.605469 152.757812 C 51.929688 150.171875 50.277344 147.570312 48.507812 145.042969 C 48.140625 144.515625 47.777344 143.980469 47.40625 143.457031 C 47.34375 143.367188 47.25 143.242188 47.117188 143.339844 C 47.011719 143.421875 47.105469 143.527344 47.148438 143.613281 C 47.1875 143.6875 47.234375 143.757812 47.28125 143.828125 C 49.128906 146.546875 51.074219 149.199219 52.710938 152.054688 C 53.074219 152.6875 53.546875 153.261719 53.96875 153.859375 C 54.011719 153.832031 54.058594 153.804688 54.101562 153.777344 Z M 60.554688 151.390625 C 60.554688 150.859375 60.347656 150.367188 60.25 149.851562 C 59.605469 146.449219 58.964844 143.039062 58.316406 139.636719 C 58.273438 139.402344 58.277344 138.96875 58.035156 139.019531 C 57.734375 139.082031 57.902344 139.476562 57.953125 139.71875 C 58.597656 142.832031 59.371094 145.917969 59.761719 149.078125 C 59.867188 149.945312 60.121094 150.789062 60.382812 151.648438 C 60.570312 151.5625 60.554688 151.46875 60.554688 151.390625 Z M 48.777344 157.878906 C 48.265625 157.402344 47.679688 157.027344 47.109375 156.628906 C 45.214844 155.320312 43.316406 154.015625 41.503906 152.59375 C 40.929688 152.144531 40.320312 151.742188 39.722656 151.328125 C 39.605469 151.246094 39.425781 151.136719 39.328125 151.320312 C 39.246094 151.464844 39.417969 151.554688 39.523438 151.632812 C 39.867188 151.878906 40.210938 152.125 40.5625 152.359375 C 41.167969 152.769531 41.785156 153.152344 42.378906 153.574219 C 44.449219 155.046875 46.398438 156.683594 48.519531 158.089844 C 48.6875 158.199219 48.824219 158.425781 49.101562 158.316406 C 49.070312 158.105469 48.90625 158 48.777344 157.878906 Z M 45.746094 164.691406 C 45.671875 164.652344 45.601562 164.59375 45.527344 164.578125 C 43.941406 164.3125 42.417969 163.789062 40.839844 163.484375 C 38.949219 163.121094 37.128906 162.460938 35.242188 162.066406 C 34.910156 161.996094 34.554688 161.828125 34.167969 162.007812 C 34.347656 162.257812 34.59375 162.273438 34.816406 162.328125 C 36.320312 162.714844 37.835938 163.058594 39.351562 163.394531 C 40.902344 163.734375 42.417969 164.210938 43.957031 164.59375 C 44.535156 164.738281 45.125 164.867188 45.722656 164.816406 C 45.730469 164.773438 45.738281 164.730469 45.746094 164.691406 Z M 78.882812 158.664062 C 79.351562 158.332031 79.808594 157.980469 80.273438 157.648438 C 82.515625 156.039062 84.757812 154.4375 86.996094 152.828125 C 87.253906 152.640625 87.488281 152.417969 87.726562 152.199219 C 87.804688 152.128906 87.941406 152.039062 87.820312 151.910156 C 87.734375 151.820312 87.628906 151.914062 87.550781 151.96875 C 87.160156 152.238281 86.777344 152.515625 86.386719 152.785156 C 85.0625 153.695312 83.917969 154.839844 82.546875 155.691406 C 81.265625 156.488281 80.039062 157.359375 78.851562 158.289062 C 78.671875 158.429688 78.449219 158.546875 78.390625 158.832031 C 78.636719 158.90625 78.75 158.753906 78.882812 158.664062 Z M 74.09375 152.738281 C 75.355469 150.691406 76.628906 148.65625 78.0625 146.726562 C 78.609375 145.992188 79.09375 145.21875 79.546875 144.421875 C 79.628906 144.28125 79.773438 144.070312 79.609375 143.96875 C 79.425781 143.855469 79.332031 144.097656 79.25 144.230469 C 77.503906 147.132812 75.523438 149.878906 73.703125 152.730469 C 73.480469 153.074219 73.210938 153.398438 73.140625 153.832031 C 73.589844 153.570312 73.839844 153.148438 74.09375 152.738281 Z M 67.015625 151.480469 C 67.0625 151.304688 67.121094 151.132812 67.152344 150.953125 C 67.8125 147.570312 68.402344 144.171875 69.195312 140.816406 C 69.273438 140.46875 69.324219 140.117188 69.378906 139.765625 C 69.398438 139.636719 69.40625 139.457031 69.234375 139.4375 C 69.058594 139.417969 69.046875 139.601562 69.003906 139.722656 C 68.984375 139.785156 68.984375 139.855469 68.976562 139.925781 C 68.511719 143.035156 67.8125 146.101562 67.199219 149.183594 C 67.050781 149.929688 66.902344 150.691406 66.882812 151.460938 C 66.929688 151.46875 66.972656 151.472656 67.015625 151.480469 Z M 92.484375 162.398438 C 88.796875 163.175781 85.105469 163.933594 81.46875 164.945312 C 82.226562 165.058594 92.253906 162.730469 92.484375 162.398438 Z M 32.890625 161.765625 C 32.941406 161.769531 33.027344 161.714844 33.046875 161.667969 C 33.089844 161.570312 33.003906 161.511719 32.925781 161.488281 C 32.339844 161.328125 31.761719 161.097656 31.128906 161.167969 C 31.675781 161.496094 32.261719 161.695312 32.890625 161.765625 Z M 45.476562 140.890625 C 45.433594 140.882812 45.351562 140.886719 45.34375 140.90625 C 45.328125 140.960938 45.3125 141.039062 45.335938 141.089844 C 45.566406 141.523438 45.851562 141.921875 46.175781 142.296875 C 46.234375 142.363281 46.316406 142.398438 46.398438 142.355469 C 46.433594 142.339844 46.445312 142.277344 46.457031 142.257812 C 46.457031 142.058594 45.640625 140.933594 45.476562 140.890625 Z M 88.921875 150.894531 C 88.839844 150.957031 88.785156 151.066406 88.851562 151.160156 C 88.925781 151.269531 89.035156 151.207031 89.121094 151.15625 C 89.550781 150.894531 89.933594 150.578125 90.203125 150.132812 C 89.710938 150.292969 89.308594 150.582031 88.921875 150.894531 Z M 57.660156 137.609375 C 57.683594 137.699219 57.714844 137.816406 57.847656 137.800781 C 57.945312 137.789062 57.988281 137.703125 57.96875 137.613281 C 57.84375 137.070312 57.820312 136.496094 57.4375 136.03125 C 57.394531 136.578125 57.539062 137.089844 57.660156 137.609375 Z M 69.882812 136.691406 C 69.886719 136.640625 69.835938 136.554688 69.792969 136.53125 C 69.691406 136.484375 69.636719 136.578125 69.617188 136.65625 C 69.496094 137.148438 69.3125 137.640625 69.492188 138.167969 C 69.824219 137.722656 69.808594 137.195312 69.882812 136.691406 Z M 81.359375 141.355469 C 80.972656 141.855469 80.464844 142.273438 80.34375 142.941406 C 80.773438 142.472656 81.21875 142.011719 81.359375 141.355469 Z M 36.402344 149.382812 C 36.75 149.875 37.25 150.15625 37.808594 150.359375 C 37.445312 149.890625 37.007812 149.515625 36.402344 149.382812 Z M 93.757812 162.164062 C 94.308594 162.070312 94.898438 162.105469 95.347656 161.671875 C 94.789062 161.761719 94.195312 161.714844 93.757812 162.164062 Z M 93.757812 162.164062 " fill-opacity="1" fill-rule="nonzero"/></g><g clip-path="url(#9e696993ff)"><path fill="#3f4446" d="M 15.691406 198.671875 L 17.824219 203.460938 C 17.90625 203.644531 18.035156 203.800781 18.195312 203.921875 C 18.359375 204.039062 18.550781 204.113281 18.75 204.132812 L 23.960938 204.679688 L 20.066406 208.183594 C 19.917969 208.316406 19.804688 208.488281 19.742188 208.679688 C 19.679688 208.871094 19.671875 209.078125 19.710938 209.273438 L 20.804688 214.398438 L 16.265625 211.777344 C 16.09375 211.675781 15.894531 211.625 15.691406 211.625 C 15.492188 211.625 15.292969 211.675781 15.121094 211.777344 L 10.582031 214.398438 L 11.675781 209.273438 C 11.714844 209.078125 11.707031 208.871094 11.644531 208.679688 C 11.582031 208.488281 11.46875 208.316406 11.320312 208.183594 L 7.425781 204.679688 L 12.636719 204.132812 C 12.835938 204.113281 13.027344 204.039062 13.191406 203.921875 C 13.351562 203.800781 13.480469 203.644531 13.5625 203.460938 Z M 15.691406 198.671875 " fill-opacity="1" fill-rule="evenodd"/></g><g clip-path="url(#c4b870f1f2)"><path fill="#67bc45" d="M 112.476562 198.671875 L 114.605469 203.460938 C 114.6875 203.644531 114.816406 203.800781 114.980469 203.921875 C 115.140625 204.039062 115.332031 204.113281 115.53125 204.132812 L 120.742188 204.679688 L 116.847656 208.183594 C 116.699219 208.316406 116.585938 208.488281 116.527344 208.679688 C 116.464844 208.871094 116.453125 209.078125 116.496094 209.273438 L 117.585938 214.398438 L 113.050781 211.777344 C 112.875 211.675781 112.675781 211.625 112.476562 211.625 C 112.273438 211.625 112.078125 211.675781 111.902344 211.777344 L 107.367188 214.398438 L 108.457031 209.273438 C 108.5 209.078125 108.488281 208.871094 108.425781 208.679688 C 108.363281 208.488281 108.253906 208.316406 108.101562 208.183594 L 104.207031 204.679688 L 109.417969 204.132812 C 109.621094 204.113281 109.808594 204.039062 109.972656 203.921875 C 110.136719 203.800781 110.265625 203.644531 110.347656 203.460938 Z M 112.476562 198.671875 " fill-opacity="1" fill-rule="evenodd"/></g></svg>